<?xml version="1.0" encoding="utf-8"?>
<!-- Generator: Adobe Illustrator 27.5.0, SVG Export Plug-In . SVG Version: 6.00 Build 0)  -->
<svg version="1.1" xmlns="http://www.w3.org/2000/svg" xmlns:xlink="http://www.w3.org/1999/xlink" x="0px" y="0px"
	 viewBox="0 0 650 500" style="enable-background:new 0 0 650 500;" xml:space="preserve">
<g id="BACKGROUND">
	<rect style="fill:#D0DEF5;" width="650" height="500"/>
</g>
<g id="OBJECTS">
	<g>
		<g>
			<path style="fill:#ABC2E6;" d="M86.087,366.977h49.534c0,0-1.801-23.444-24.767-23.444S86.087,366.977,86.087,366.977z"/>
			
				<ellipse transform="matrix(0.987 -0.161 0.161 0.987 -50.8295 22.084)" style="fill:#ABC2E6;" cx="110.854" cy="324.684" rx="16.414" ry="16.414"/>
		</g>
		<g>
			<path style="fill:#ABC2E6;" d="M451.865,101.625h43.285c0,0-1.574-20.486-21.643-20.486
				C453.439,81.139,451.865,101.625,451.865,101.625z"/>
			<circle style="fill:#ABC2E6;" cx="473.508" cy="64.667" r="14.343"/>
		</g>
		<g>
			<path style="fill:#ABC2E6;" d="M54.611,331.336h35.685c0,0-1.298-16.889-17.842-16.889
				C55.909,314.447,54.611,331.336,54.611,331.336z"/>
			<circle style="fill:#ABC2E6;" cx="72.454" cy="300.868" r="11.825"/>
		</g>
		<g>
			<path style="fill:#ABC2E6;" d="M419.304,75.975h35.685c0,0-1.298-16.889-17.842-16.889
				C420.602,59.085,419.304,75.975,419.304,75.975z"/>
			
				<ellipse transform="matrix(0.9616 -0.2746 0.2746 0.9616 4.3088 121.7907)" style="fill:#ABC2E6;" cx="437.147" cy="45.506" rx="11.825" ry="11.825"/>
		</g>
		<g>
			<path style="fill:#ABC2E6;" d="M542.931,265.136h37.828c0,0-1.376-17.903-18.914-17.903
				C544.306,247.233,542.931,265.136,542.931,265.136z"/>
			
				<ellipse transform="matrix(0.9779 -0.2091 0.2091 0.9779 -36.2701 122.6493)" style="fill:#ABC2E6;" cx="561.845" cy="232.837" rx="12.535" ry="12.535"/>
		</g>
	</g>
	<path style="fill:#ABC2E6;" d="M471.74,370.641c-47.409,49.546-117.65,73.185-185.466,65.159
		c-61.232-7.247-137.644-44.049-152.057-109.949c-11.087-50.695,23.458-93.489,70.851-107.412
		c48.818-14.342,61.753-42.341,85.591-71.311c59.015-71.721,171.221-68.234,222.554,9.171
		C551.457,213.969,543.646,295.494,471.74,370.641z"/>
	<g>
		<defs>
			<path id="SVGID_1_" d="M471.74,370.641c-47.409,49.546-117.65,73.185-185.466,65.159
				c-61.232-7.247-201.759-78.384-216.172-144.285c-11.087-50.694,87.573-59.153,134.965-73.076
				c48.818-14.342,48.684-86.709,72.521-115.679C336.603,31.04,461.88,78.894,513.212,156.3
				C551.457,213.969,543.646,295.494,471.74,370.641z"/>
		</defs>
		<clipPath id="SVGID_00000151539719919459132530000007049048274839123869_">
			<use xlink:href="#SVGID_1_"  style="overflow:visible;"/>
		</clipPath>
		<g style="clip-path:url(#SVGID_00000151539719919459132530000007049048274839123869_);">
			<path d="M362.883,77.554c0,0-27.137-3.072-46.594,27.137c-19.457,30.209,13.824,39.425-25.601,98.819
				c-23.041,39.937,17.409,65.538,42.497,65.026c25.089-0.512,77.827,0.354,107.012-45.136
				C469.383,177.909,430.981,80.114,362.883,77.554z"/>
			<path style="fill:#CA7168;" d="M181.756,271.764c-26.151-13.545-56.149-11.689-57.995-8.225
				c-1.846,3.463,21.531,10.364,21.531,10.364s-35.75-6.608-39.538-1.586c-3.789,5.022,19.182,29.134,73.069,19.797L181.756,271.764
				z"/>
			<path style="fill:#CA7168;" d="M576.335,439.442c20.439,21.203,49.453,29.047,52.31,26.357c2.857-2.69-17.08-16.711-17.08-16.711
				s31.753,17.704,36.95,14.159c5.197-3.545-8.847-33.742-62.887-42.145L576.335,439.442z"/>
			<g>
				<defs>
					<path id="SVGID_00000051359386987849698340000013420195370354472100_" d="M178.683,267.203l96.002,48.646
						c0,0,53.157-57.942,79.48-82.172c26.323-24.23,65.059-1.819,21.994,58.454c-43.065,60.273-82.76,86.18-101.493,79.471
						c-18.732-6.709-113.374-70.077-113.374-70.077L178.683,267.203z"/>
				</defs>
				<use xlink:href="#SVGID_00000051359386987849698340000013420195370354472100_"  style="overflow:visible;fill:#FFFFFF;"/>
				<clipPath id="SVGID_00000108300409101490797350000006352405228883502764_">
					<use xlink:href="#SVGID_00000051359386987849698340000013420195370354472100_"  style="overflow:visible;"/>
				</clipPath>
				<path style="clip-path:url(#SVGID_00000108300409101490797350000006352405228883502764_);" d="M335.726,255.852
					c0,0-59.11,43.904-32.323,127.693c16.789-9.046,16.789-9.046,16.789-9.046L335.726,255.852z"/>
			</g>
			<g>
				<defs>
					<path id="XMLID_00000077306174398504046110000004676178047904398502_" d="M448.3,421.103c0,0,33.862-213.855-70.405-196.638
						c0,0-3.762,1.172-9.608,3.943c-43.13,20.448-67.714,66.691-62.01,114.08c2.585,21.481,8.41,54.839,21.085,104.904
						C414.909,465.008,448.3,421.103,448.3,421.103z"/>
				</defs>
				<use xlink:href="#XMLID_00000077306174398504046110000004676178047904398502_"  style="overflow:visible;fill:#D9E5F8;"/>
				<clipPath id="XMLID_00000105412886977836253870000004196941158039354801_">
					<use xlink:href="#XMLID_00000077306174398504046110000004676178047904398502_"  style="overflow:visible;"/>
				</clipPath>
				
					<path style="clip-path:url(#XMLID_00000105412886977836253870000004196941158039354801_);fill:none;stroke:#000000;stroke-width:1.5;stroke-linecap:round;stroke-linejoin:round;stroke-miterlimit:10;" d="
					M364.576,236.074c0,0-37.734,70.073,0.819,223.279"/>
				
					<rect x="364.251" y="306.213" transform="matrix(0.9947 0.1028 -0.1028 0.9947 34.195 -37.7399)" style="clip-path:url(#XMLID_00000105412886977836253870000004196941158039354801_);fill:none;stroke:#000000;stroke-width:1.5;stroke-linecap:round;stroke-linejoin:round;stroke-miterlimit:10;" width="38.093" height="13.44"/>
				<path style="clip-path:url(#XMLID_00000105412886977836253870000004196941158039354801_);" d="M410.467,288.471
					c0.151,0.439,13.604,74.157,64.102,100.986c15.234-27.136,12.378-30.469,12.378-30.469L410.467,288.471z"/>
			</g>
			<g>
				<defs>
					<path id="XMLID_00000048498925924098186540000018019141764626461354_" d="M406.331,221.983c0,0-27.524,21.102-47.994,33.868
						c-3.585-12.292-22.611-75.923-22.611-75.923l54.131-6.924L406.331,221.983z"/>
				</defs>
				<use xlink:href="#XMLID_00000048498925924098186540000018019141764626461354_"  style="overflow:visible;fill:#CA7168;"/>
				<clipPath id="XMLID_00000144325301847130960840000009878069145792009148_">
					<use xlink:href="#XMLID_00000048498925924098186540000018019141764626461354_"  style="overflow:visible;"/>
				</clipPath>
				<path style="clip-path:url(#XMLID_00000144325301847130960840000009878069145792009148_);" d="M345.958,93.628
					c0,0-50.757,4.092-52.448,58.329c-1.691,54.237,14.037,77.397,44.979,73.476c32.1-4.067,53.9-30.982,62.941-63.272
					C410.494,129.79,383.44,94.836,345.958,93.628z"/>
			</g>
			<g>
				<defs>
					<path id="XMLID_00000102543703846974227530000018177623394478156177_" d="M338.565,87.243
						c-9.936,5.596-19.933,15.271-24.076,31.985c-16.521,89.395,11.114,96.093,42.055,92.172c32.1-4.067,53.9-30.982,62.941-63.272
						c6.307-22.524-4.872-46.297-24.883-59.084C377.726,78.259,356.015,77.414,338.565,87.243z"/>
				</defs>
				<use xlink:href="#XMLID_00000102543703846974227530000018177623394478156177_"  style="overflow:visible;fill:#CA7168;"/>
				<clipPath id="XMLID_00000085244056749051095350000011017963213355390634_">
					<use xlink:href="#XMLID_00000102543703846974227530000018177623394478156177_"  style="overflow:visible;"/>
				</clipPath>
				
					<ellipse transform="matrix(0.9228 -0.3853 0.3853 0.9228 -43.4321 130.2558)" style="clip-path:url(#XMLID_00000085244056749051095350000011017963213355390634_);fill:#C45853;" cx="303.312" cy="173.504" rx="15.86" ry="15.86"/>
				
					<ellipse transform="matrix(0.9677 -0.2522 0.2522 0.9677 -32.7513 97.6787)" style="clip-path:url(#XMLID_00000085244056749051095350000011017963213355390634_);fill:#C45853;" cx="364.67" cy="176.603" rx="15.86" ry="15.86"/>
				
					<path style="clip-path:url(#XMLID_00000085244056749051095350000011017963213355390634_);fill:none;stroke:#000000;stroke-width:1.5;stroke-linecap:round;stroke-linejoin:round;stroke-miterlimit:10;" d="
					M392.384,164.617c0,0-5.464-1.171-8.314,6.841c3.568,0.18,4.604,3.244,3.728,5.082"/>
				<g style="clip-path:url(#XMLID_00000085244056749051095350000011017963213355390634_);">
					
						<path style="fill:none;stroke:#000000;stroke-width:1.5;stroke-linecap:round;stroke-linejoin:round;stroke-miterlimit:10;" d="
						M314.782,154.613c0,0,4.983-4.392,9.498,0.48"/>
					<path d="M322.032,159.547c0.156-3.085-0.99-4.672-2.499-4.748s-2.809,1.387-2.964,4.472c-0.156,3.085,0.99,4.672,2.499,4.748
						S321.877,162.632,322.032,159.547z"/>
					
						<path style="fill:none;stroke:#000000;stroke-width:1.5;stroke-linecap:round;stroke-linejoin:round;stroke-miterlimit:10;" d="
						M345.663,156.173c0,0,4.983-4.392,9.498,0.48"/>
					<path d="M352.914,161.107c0.156-3.085-0.99-4.672-2.499-4.748c-1.509-0.076-2.809,1.387-2.964,4.472
						c-0.156,3.085,0.99,4.672,2.499,4.748C351.458,165.655,352.758,164.192,352.914,161.107z"/>
				</g>
				
					<path style="clip-path:url(#XMLID_00000085244056749051095350000011017963213355390634_);fill:none;stroke:#000000;stroke-width:1.5;stroke-linecap:round;stroke-linejoin:round;stroke-miterlimit:10;" d="
					M328.75,183.011c0,0,7.11,3.201,14.689-2.906"/>
				
					<path style="clip-path:url(#XMLID_00000085244056749051095350000011017963213355390634_);fill:none;stroke:#000000;stroke-width:1.5;stroke-linecap:round;stroke-linejoin:round;stroke-miterlimit:10;" d="
					M332.942,159.12c0,0-1.144,6.107-4.455,8.782c-3.311,2.674-1.487,6.277,1.689,6.27"/>
				<path style="clip-path:url(#XMLID_00000085244056749051095350000011017963213355390634_);" d="M324.728,146.225
					c0.081-1.607-1.979-3.018-4.602-3.15c-2.623-0.132-4.815,1.063-4.896,2.671c-0.081,1.607,0.949,1.598,3.571,1.731
					C321.424,147.609,324.646,147.833,324.728,146.225z"/>
				<path style="clip-path:url(#XMLID_00000085244056749051095350000011017963213355390634_);" d="M355.609,147.785
					c0.081-1.607-1.979-3.018-4.602-3.15c-2.623-0.133-4.815,1.063-4.896,2.671c-0.081,1.607,0.949,1.598,3.572,1.731
					C352.305,149.168,355.528,149.392,355.609,147.785z"/>
			</g>
			<g>
				<defs>
					<polygon id="XMLID_00000052824505797960387160000003341040522978239148_" points="358.337,255.852 401.374,207.248 
						415.779,223.613 388.659,255.852 371.028,253.014 					"/>
				</defs>
				<use xlink:href="#XMLID_00000052824505797960387160000003341040522978239148_"  style="overflow:visible;fill:#FFFFFF;"/>
				<clipPath id="XMLID_00000031916237551457460690000008585069141495886484_">
					<use xlink:href="#XMLID_00000052824505797960387160000003341040522978239148_"  style="overflow:visible;"/>
				</clipPath>
				<polygon style="clip-path:url(#XMLID_00000031916237551457460690000008585069141495886484_);" points="383.594,250.001 
					371.028,253.014 388.659,255.852 				"/>
			</g>
			<polygon style="fill:#FFFFFF;" points="358.337,255.852 347.636,219.814 338.24,233.557 			"/>
			<path style="fill:none;stroke:#000000;stroke-width:1.5;stroke-linecap:round;stroke-linejoin:round;stroke-miterlimit:10;" d="
				M291.795,346.449c0,0-3.899-22.098-15.905-26.29c5.729,12.557,0.81,22.629,0.81,22.629"/>
			<path style="fill:#FFFFFF;" d="M595.751,422.226c0,0-45.922-33.408-83.355-84.706c-37.433-51.297-73.005-105.54-89.794-99.313
				c-16.789,6.227-33.426,38.114,20.644,104.662s134.364,104.524,134.364,104.524L595.751,422.226z"/>
			<path d="M305.823,140.53c0,0,24.206,1.698,48.705-18.423c7.472-6.137,18.767-1.866,20.188,7.698
				c3.7,24.914,4.79,31.206,4.79,31.206s4.498-9.728,15.954-6.656c11.456,3.072,5.179,22.337-2.179,28.833
				c-1.214,21.857,15.171,41.137,38.212,31.241c18.433-80.043-8.155-122.73-56.815-135.435
				C326.018,66.287,297.857,112.369,305.823,140.53z"/>
			<path style="fill:#D9E5F8;" d="M323.562,89.953c0,0,28.569-12.402,53.658,9.615c25.089,22.017,18.241,54.786,18.241,54.786
				l5.282,4.339c0,0,11.807-36.596-16.354-61.685C356.227,71.92,326.285,84.412,323.562,89.953z"/>
			<circle style="fill:#D9E5F8;" cx="392.675" cy="167.939" r="21.647"/>
			<path style="fill:#D9E5F8;" d="M383.193,178.064l-48.561,17.319c-1.082,0.386-1.651,1.587-1.265,2.668l0,0
				c0.386,1.082,1.586,1.651,2.668,1.265l48.561-17.319c1.082-0.386,1.651-1.586,1.265-2.668l0,0
				C385.476,178.248,384.275,177.679,383.193,178.064z"/>
			<path style="fill:#D9E5F8;" d="M339.823,201.453l-4.48,0.698c-2.738,0.426-5.326-1.464-5.753-4.202l0,0
				c-0.426-2.738,1.464-5.326,4.202-5.753l4.48-0.698c2.738-0.426,5.326,1.464,5.753,4.202v0
				C344.452,198.438,342.561,201.026,339.823,201.453z"/>
			
				<ellipse transform="matrix(0.9736 -0.2282 0.2282 0.9736 -27.9619 94.0353)" style="fill:none;stroke:#000000;stroke-width:1.5;stroke-linecap:round;stroke-linejoin:round;stroke-miterlimit:10;" cx="392.675" cy="167.939" rx="15.985" ry="15.985"/>
			<path d="M355.075,440.313c0-1.874-1.519-3.393-3.393-3.393c-1.874,0-3.393,1.519-3.393,3.393s1.519,3.393,3.393,3.393
				C353.555,443.706,355.075,442.187,355.075,440.313z"/>
			<path d="M341.633,297.635c0-1.874-1.519-3.393-3.393-3.393c-1.874,0-3.393,1.519-3.393,3.393c0,1.874,1.519,3.393,3.393,3.393
				C340.114,301.028,341.633,299.509,341.633,297.635z"/>
			<path d="M341.633,368.974c0-1.874-1.519-3.393-3.393-3.393c-1.874,0-3.393,1.519-3.393,3.393c0,1.874,1.519,3.393,3.393,3.393
				C340.114,372.367,341.633,370.848,341.633,368.974z"/>
			<path d="M350.348,261.965c0-1.874-1.519-3.393-3.393-3.393c-1.874,0-3.393,1.519-3.393,3.393c0,1.874,1.519,3.393,3.393,3.393
				C348.829,265.358,350.348,263.839,350.348,261.965z"/>
			<path d="M341.633,333.304c0-1.874-1.519-3.393-3.393-3.393c-1.874,0-3.393,1.519-3.393,3.393s1.519,3.393,3.393,3.393
				C340.114,336.697,341.633,335.178,341.633,333.304z"/>
			<path d="M346.955,404.643c0-1.874-1.519-3.393-3.393-3.393c-1.874,0-3.393,1.519-3.393,3.393c0,1.874,1.519,3.393,3.393,3.393
				C345.436,408.036,346.955,406.517,346.955,404.643z"/>
			
				<line style="fill:none;stroke:#000000;stroke-width:1.5;stroke-linecap:round;stroke-linejoin:round;stroke-miterlimit:10;" x1="190.616" y1="273.25" x2="172.897" y2="309.236"/>
			
				<line style="fill:none;stroke:#000000;stroke-width:1.5;stroke-linecap:round;stroke-linejoin:round;stroke-miterlimit:10;" x1="568.009" y1="442.474" x2="586.551" y2="415.037"/>
		</g>
	</g>
	<g>
		<g>
			<path d="M470.978,236.034L492.11,93.935c0.361-2.431,2.625-4.108,5.056-3.747l74.082,11.017c2.431,0.361,4.108,2.625,3.747,5.056
				L553.862,248.36c-0.362,2.431-2.625,4.108-5.056,3.747l-74.082-11.017C472.294,240.728,470.616,238.464,470.978,236.034z"/>
			
				<rect x="452.846" y="134.148" transform="matrix(-0.1471 0.9891 -0.9891 -0.1471 769.2019 -320.9741)" style="fill:#8CACF7;" width="140.281" height="73.999"/>
		</g>
		<g>
			
				<line style="fill:none;stroke:#272726;stroke-width:1.5;stroke-linecap:round;stroke-linejoin:round;stroke-miterlimit:10;" x1="503.99" y1="114.226" x2="557.724" y2="122.217"/>
			
				<line style="fill:none;stroke:#272726;stroke-width:1.5;stroke-linecap:round;stroke-linejoin:round;stroke-miterlimit:10;" x1="502.334" y1="125.357" x2="556.069" y2="133.348"/>
			
				<line style="fill:none;stroke:#272726;stroke-width:1.5;stroke-linecap:round;stroke-linejoin:round;stroke-miterlimit:10;" x1="500.679" y1="136.488" x2="554.413" y2="144.48"/>
			
				<line style="fill:none;stroke:#272726;stroke-width:1.5;stroke-linecap:round;stroke-linejoin:round;stroke-miterlimit:10;" x1="497.368" y1="158.751" x2="551.102" y2="166.742"/>
			
				<line style="fill:none;stroke:#272726;stroke-width:1.5;stroke-linecap:round;stroke-linejoin:round;stroke-miterlimit:10;" x1="499.024" y1="147.62" x2="552.758" y2="155.611"/>
			
				<line style="fill:none;stroke:#272726;stroke-width:1.5;stroke-linecap:round;stroke-linejoin:round;stroke-miterlimit:10;" x1="495.713" y1="169.882" x2="549.447" y2="177.873"/>
			
				<line style="fill:none;stroke:#272726;stroke-width:1.5;stroke-linecap:round;stroke-linejoin:round;stroke-miterlimit:10;" x1="494.058" y1="181.013" x2="547.792" y2="189.004"/>
			
				<line style="fill:none;stroke:#272726;stroke-width:1.5;stroke-linecap:round;stroke-linejoin:round;stroke-miterlimit:10;" x1="492.402" y1="192.144" x2="546.136" y2="200.135"/>
		</g>
		<path style="fill:#FFFFFF;" d="M535.296,214.52l-36.709-5.459c-4.701-0.699-9.079,2.545-9.779,7.247v0
			c-0.699,4.701,2.545,9.079,7.247,9.778l36.709,5.459c4.701,0.699,9.079-2.545,9.779-7.247l0,0
			C543.242,219.597,539.998,215.219,535.296,214.52z"/>
	</g>
	<g>
		<g>
			<polygon style="fill:#7791EE;" points="90.595,177.859 79.375,212.92 117.943,184.17 			"/>
			<g>
				<defs>
					<path id="XMLID_00000068636112102946254400000011278283868275030408_" d="M194.647,190.481h-85.39
						c-16.435,0-29.882-13.447-29.882-29.882v-28.59c0-16.435,13.447-29.882,29.882-29.882h85.39
						c16.435,0,29.882,13.447,29.882,29.882v28.59C224.528,177.034,211.082,190.481,194.647,190.481z"/>
				</defs>
				<use xlink:href="#XMLID_00000068636112102946254400000011278283868275030408_"  style="overflow:visible;fill:#7791EE;"/>
				<clipPath id="XMLID_00000178201033246939875970000009900590091819493524_">
					<use xlink:href="#XMLID_00000068636112102946254400000011278283868275030408_"  style="overflow:visible;"/>
				</clipPath>
				<path style="clip-path:url(#XMLID_00000178201033246939875970000009900590091819493524_);" d="M237.593,146.304h-85.39
					c-16.435,0-29.882-13.447-29.882-29.882v-28.59c0-16.435,13.447-29.882,29.882-29.882h85.39
					c16.435,0,29.882,13.447,29.882,29.882v28.59C267.474,132.857,254.028,146.304,237.593,146.304z"/>
			</g>
			
				<line style="fill:none;stroke:#000000;stroke-width:1.5;stroke-linecap:round;stroke-linejoin:round;stroke-miterlimit:10;" x1="103.313" y1="133.798" x2="198.547" y2="133.798"/>
			
				<line style="fill:none;stroke:#000000;stroke-width:1.5;stroke-linecap:round;stroke-linejoin:round;stroke-miterlimit:10;" x1="103.313" y1="158.81" x2="198.547" y2="158.81"/>
		</g>
		<g>
			<polygon style="fill:#E797B3;" points="276.44,125.411 289.286,165.557 245.126,132.638 			"/>
			<path style="fill:#E797B3;" d="M254.679,139.864h-97.772c-18.818,0-34.215-15.397-34.215-34.215V72.912
				c0-18.818,15.397-34.215,34.215-34.215h97.772c18.818,0,34.215,15.397,34.215,34.215v32.737
				C288.894,124.467,273.497,139.864,254.679,139.864z"/>
		</g>
		
			<line style="fill:none;stroke:#000000;stroke-width:1.5;stroke-linecap:round;stroke-linejoin:round;stroke-miterlimit:10;" x1="151.952" y1="74.961" x2="260.997" y2="74.961"/>
		
			<line style="fill:none;stroke:#000000;stroke-width:1.5;stroke-linecap:round;stroke-linejoin:round;stroke-miterlimit:10;" x1="151.952" y1="103.6" x2="260.997" y2="103.6"/>
	</g>
	<g>
		<g>
			<g>
				<g>
					<defs>
						
							<rect id="XMLID_00000149372540026803334540000012977902058804978581_" x="114.41" y="359.357" transform="matrix(0.9611 -0.2763 0.2763 0.9611 -104.2143 64.0689)" width="121.631" height="84.913"/>
					</defs>
					<clipPath id="XMLID_00000054974960770569024830000016367492736319075255_">
						<use xlink:href="#XMLID_00000149372540026803334540000012977902058804978581_"  style="overflow:visible;"/>
					</clipPath>
				</g>
			</g>
			<g>
				<g>
					<defs>
						
							<rect id="XMLID_00000049186176339265692050000007487781791851683502_" x="114.41" y="359.357" transform="matrix(0.9611 -0.2763 0.2763 0.9611 -104.2143 64.0689)" width="121.631" height="84.913"/>
					</defs>
					<use xlink:href="#XMLID_00000049186176339265692050000007487781791851683502_"  style="overflow:visible;fill:#E797B3;"/>
					<clipPath id="XMLID_00000115512918177504087010000016195287722459658150_">
						<use xlink:href="#XMLID_00000049186176339265692050000007487781791851683502_"  style="overflow:visible;"/>
					</clipPath>
					<g style="clip-path:url(#XMLID_00000115512918177504087010000016195287722459658150_);">
						
							<rect x="184.701" y="367.803" transform="matrix(0.2105 -0.9776 0.9776 0.2105 -236.8969 550.8446)" width="75.805" height="108.586"/>
					</g>
				</g>
				<g>
					
						<polyline style="fill:none;stroke:#000000;stroke-width:1.5;stroke-linecap:round;stroke-linejoin:round;stroke-miterlimit:10;" points="
						106.874,384.173 177.053,408.17 223.769,350.561 					"/>
				</g>
				<g>
					
						<line style="fill:none;stroke:#000000;stroke-width:1.5;stroke-linecap:round;stroke-linejoin:round;stroke-miterlimit:10;" x1="166.121" y1="404.432" x2="126.683" y2="453.066"/>
				</g>
				<g>
					
						<line style="fill:none;stroke:#000000;stroke-width:1.5;stroke-linecap:round;stroke-linejoin:round;stroke-miterlimit:10;" x1="243.578" y1="419.454" x2="184.331" y2="399.196"/>
				</g>
			</g>
			<g>
				<g>
					<defs>
						
							<rect id="XMLID_00000122719016811891516620000002458649790122508965_" x="114.41" y="359.357" transform="matrix(0.9611 -0.2763 0.2763 0.9611 -104.2143 64.0689)" width="121.631" height="84.913"/>
					</defs>
					<clipPath id="XMLID_00000081622462071069730790000017667205399180982164_">
						<use xlink:href="#XMLID_00000122719016811891516620000002458649790122508965_"  style="overflow:visible;"/>
					</clipPath>
				</g>
			</g>
		</g>
		<g>
			<g>
				
					<rect x="187.067" y="369.054" transform="matrix(0.2105 -0.9776 0.9776 0.2105 -233.8802 545.9597)" style="fill:#FFFFFF;" width="68.041" height="97.464"/>
				<g>
					
						<polyline style="fill:none;stroke:#000000;stroke-width:1.5;stroke-linecap:round;stroke-linejoin:round;stroke-miterlimit:10;" points="
						179.495,379.449 219.972,422.966 274.774,399.968 					"/>
				</g>
				<g>
					
						<line style="fill:none;stroke:#000000;stroke-width:1.5;stroke-linecap:round;stroke-linejoin:round;stroke-miterlimit:10;" x1="213.666" y1="416.187" x2="167.401" y2="435.603"/>
				</g>
				<g>
					
						<line style="fill:none;stroke:#000000;stroke-width:1.5;stroke-linecap:round;stroke-linejoin:round;stroke-miterlimit:10;" x1="262.68" y1="456.122" x2="228.509" y2="419.384"/>
				</g>
			</g>
		</g>
	</g>
	<g>
		<rect x="393.514" y="367.191" style="fill:#A2C3E8;" width="159.987" height="92.082"/>
		<g>
			
				<rect x="393.514" y="346.161" transform="matrix(-1 -1.224647e-16 1.224647e-16 -1 947.0153 700.0058)" style="fill:#A2C3E8;" width="159.987" height="7.684"/>
			<g>
				<g>
					<polygon style="fill:#7791EE;" points="540.169,353.845 553.501,353.845 560.773,380.11 546.229,380.11 					"/>
					<path style="fill:#8CACF7;" d="M560.773,380.11h-14.544c0,0,0.639,8.111,7.272,8.111
						C560.134,388.221,560.773,380.11,560.773,380.11z"/>
				</g>
			</g>
			<g>
				<polygon style="fill:#E797B3;" points="526.837,353.845 540.169,353.845 546.229,380.11 531.685,380.11 				"/>
				<path style="fill:#F4ABC7;" d="M546.229,380.11h-14.544c0,0,0.639,8.111,7.272,8.111S546.229,380.11,546.229,380.11z"/>
			</g>
			<g>
				<g>
					<polygon style="fill:#7791EE;" points="513.504,353.845 526.837,353.845 531.685,380.11 517.141,380.11 					"/>
					<path style="fill:#8CACF7;" d="M531.685,380.11h-14.544c0,0,0.639,8.111,7.272,8.111S531.685,380.11,531.685,380.11z"/>
				</g>
			</g>
			<g>
				<polygon style="fill:#E797B3;" points="500.172,353.845 513.504,353.845 517.141,380.11 502.596,380.11 				"/>
				<path style="fill:#F4ABC7;" d="M517.141,380.11h-14.544c0,0,0.639,8.111,7.272,8.111
					C516.501,388.221,517.141,380.11,517.141,380.11z"/>
			</g>
			<g>
				<g>
					<polygon style="fill:#7791EE;" points="486.84,353.845 500.172,353.845 502.596,380.11 488.052,380.11 					"/>
					<path style="fill:#8CACF7;" d="M502.596,380.11h-14.544c0,0,0.639,8.111,7.272,8.111
						C501.957,388.221,502.596,380.11,502.596,380.11z"/>
				</g>
			</g>
			<g>
				<polygon style="fill:#E797B3;" points="473.508,353.845 486.84,353.845 488.052,380.11 473.508,380.11 				"/>
				<path style="fill:#F4ABC7;" d="M488.052,380.11h-14.544c0,0,0.639,8.111,7.272,8.111S488.052,380.11,488.052,380.11z"/>
			</g>
			<g>
				<polygon style="fill:#7791EE;" points="460.175,353.845 473.508,353.845 473.508,380.11 458.963,380.11 				"/>
				<path style="fill:#8CACF7;" d="M473.508,380.11h-14.544c0,0,0.639,8.111,7.272,8.111
					C472.869,388.221,473.508,380.11,473.508,380.11z"/>
			</g>
			<g>
				<g>
					<polygon style="fill:#E797B3;" points="446.843,353.845 460.175,353.845 458.963,380.11 444.419,380.11 					"/>
					<path style="fill:#F4ABC7;" d="M458.963,380.11h-14.544c0,0,0.639,8.111,7.272,8.111
						C458.324,388.221,458.963,380.11,458.963,380.11z"/>
				</g>
			</g>
			<g>
				<polygon style="fill:#7791EE;" points="433.511,353.845 446.843,353.845 444.419,380.11 429.875,380.11 				"/>
				<path style="fill:#8CACF7;" d="M444.419,380.11h-14.544c0,0,0.639,8.111,7.272,8.111S444.419,380.11,444.419,380.11z"/>
			</g>
			<g>
				<g>
					<polygon style="fill:#E797B3;" points="420.179,353.845 433.511,353.845 429.875,380.11 415.331,380.11 					"/>
					<path style="fill:#F4ABC7;" d="M429.875,380.11h-14.544c0,0,0.639,8.111,7.272,8.111
						C429.236,388.221,429.875,380.11,429.875,380.11z"/>
				</g>
			</g>
			<g>
				<g>
					<polygon style="fill:#7791EE;" points="406.846,353.845 420.179,353.845 415.331,380.11 400.786,380.11 					"/>
					<path style="fill:#8CACF7;" d="M415.331,380.11h-14.544c0,0,0.639,8.111,7.272,8.111
						C414.691,388.221,415.331,380.11,415.331,380.11z"/>
				</g>
			</g>
			<g>
				<g>
					<polygon style="fill:#E797B3;" points="393.514,353.845 406.846,353.845 400.786,380.11 386.242,380.11 					"/>
					<path style="fill:#F4ABC7;" d="M400.786,380.11h-14.544c0,0,0.639,8.111,7.272,8.111S400.786,380.11,400.786,380.11z"/>
				</g>
			</g>
		</g>
		<g>
			<rect x="406.846" y="415.309" style="fill:#7791EE;" width="40.037" height="29.492"/>
			<rect x="500.132" y="415.309" style="fill:#7791EE;" width="40.037" height="29.492"/>
		</g>
		<g>
			<rect x="393.514" y="451.353" width="68.065" height="7.921"/>
			<rect x="485.436" y="451.353" width="68.065" height="7.921"/>
		</g>
		<rect x="437.147" y="393.003" style="fill:#FFFFFF;" width="72.721" height="15.755"/>
		<rect x="461.579" y="417.802" style="fill:#E797B3;" width="23.857" height="41.472"/>
		<rect x="406.846" y="441.765" width="40.037" height="3.036"/>
		<rect x="437.147" y="406.335" width="72.721" height="2.362"/>
		<rect x="500.132" y="441.765" width="40.037" height="3.036"/>
		<rect x="461.579" y="417.802" width="23.857" height="2.916"/>
		<rect x="425.736" y="415.309" style="fill:#A2C3E8;" width="2.258" height="26.456"/>
		<rect x="519.021" y="415.309" style="fill:#A2C3E8;" width="2.258" height="26.456"/>
	</g>
	<g>
		<g>
			
				<ellipse transform="matrix(0.5552 -0.8317 0.8317 0.5552 1.2952 618.9623)" style="fill:#FFFFFF;" cx="579.335" cy="308.27" rx="27.871" ry="27.871"/>
			<polygon style="fill:#7A94F0;" points="584.204,289.356 586.863,302.05 598.828,307.056 587.577,313.508 586.514,326.434 
				576.901,317.727 564.278,320.71 569.589,308.877 562.851,297.794 575.746,299.188 			"/>
		</g>
		<g>
			
				<ellipse transform="matrix(0.9752 -0.2213 0.2213 0.9752 -53.7971 24.6158)" style="fill:#FFFFFF;" cx="82.975" cy="252.434" rx="27.871" ry="27.871"/>
			<path style="fill:#E797B3;" d="M89.944,238.589c-8.893-1.396-9.201,7.886-9.201,7.886s-6.328-6.796-12.117,0.098
				c-5.439,6.477,1.246,17.329,19.589,19.856C100.387,252.475,98.3,239.9,89.944,238.589z"/>
		</g>
	</g>
</g>
</svg>
