<?xml version="1.0" encoding="utf-8"?>
<!-- Generator: Adobe Illustrator 27.5.0, SVG Export Plug-In . SVG Version: 6.00 Build 0)  -->
<svg version="1.1" xmlns="http://www.w3.org/2000/svg" xmlns:xlink="http://www.w3.org/1999/xlink" x="0px" y="0px"
	 viewBox="0 0 750 500" style="enable-background:new 0 0 750 500;" xml:space="preserve">
<g id="BACKGROUND">
	<rect style="fill:#D9D9FF;" width="750" height="500"/>
</g>
<g id="OBJECTS">
	<g>
		<defs>
			<rect id="SVGID_1_" width="750" height="500"/>
		</defs>
		<clipPath id="SVGID_00000178165082024961604930000000575177724431501245_">
			<use xlink:href="#SVGID_1_"  style="overflow:visible;"/>
		</clipPath>
		<g style="opacity:0.35;clip-path:url(#SVGID_00000178165082024961604930000000575177724431501245_);">
			<g>
				<path style="fill:#D9D9FF;" d="M728.927,500c2.838-9.042-0.031-20.268-4.737-29.059c-6.209-11.599-15.151-22.364-16.636-35.468
					c-2.821-24.894,22.175-45.948,21.138-70.983c-1.236-29.845-38.233-49.053-38.368-78.923
					c-0.126-27.975,32.753-49.557,28.172-77.146c-4.104-24.718-33.966-33.702-52.065-50.828
					c-17.782-16.826-20.995-45.873-39.769-61.639c-14.863-12.481-31.365-21.544-51.214-22.054
					c-13.047-0.336-23.95,3.673-36.299,6.81c-31.811,8.081-64.349-14.067-94.695-20.37c-23.611-4.904-49.023-4.544-72.53,0.912
					c-16.991,3.943-33.388,9.992-50.24,14.443c-17.133,4.524-30.979,4.554-48.248,0.784c-40.34-8.807-102.331,16.562-130.724,40.814
					c-31.477,26.887-32.883,61.583-47.746,100.508c-14.384,37.673-18.069,79.067-34.58,115.838
					c-9.103,20.273-21.937,38.727-30.177,59.374C16.688,426.889,16.534,465.99,29.708,500H728.927z"/>
			</g>
		</g>
		<g style="clip-path:url(#SVGID_00000178165082024961604930000000575177724431501245_);">
			<g>
				<path style="fill:#FFFFFF;" d="M461.4,90.871c0,0-2.66-19.591-11.367-19.591c-8.707,0-10.158,13.786-21.525,12.335
					c-11.367-1.451-2.66-35.311-20.074-35.311c-17.414,0-13.786,29.749-20.8,33.135c-7.014,3.386-7.127-17.643-18.381-14.995
					c-8.223,1.935-1.693,17.656-10.642,17.656c-8.949,0-6.288-7.014-14.511-7.014c-8.469,0-11.851,13.786-11.851,13.786H461.4z"/>
			</g>
			<g>
				<path style="fill:#FFFFFF;" d="M616.067,189.499c0.342-9.753,1.421-32.065,13.254-34.094
					c16.837-2.887,12.551,27.501,23.045,23.81c10.494-3.692,2.507-44.232,28.56-44.232c26.053,0,15.585,45.023,32.592,46.605
					c17.007,1.582,19.178-13.448,32.204-13.448c13.027,0,17.007,21.359,17.007,21.359H616.067L616.067,189.499z"/>
			</g>
			<g>
				<path style="fill:#FFFFFF;" d="M216.997,402.496c0.167-6.526,0.693-21.456,6.463-22.814c8.21-1.932,6.992,9.314,12.109,6.844
					c5.117-2.47,0.351-20.509,13.056-20.509c12.704,0,8.588,22.1,16.881,23.159c8.293,1.059,8.363-0.971,14.716-0.971
					c6.352,0,8.293,14.292,8.293,14.292H216.997L216.997,402.496z"/>
			</g>
			<g>
				<path style="fill:#FFFFFF;" d="M19.946,185.765c0.643-5.228,2.886-16.336,10.399-17.809c9.873-1.936,9.486,3.5,18.388,2.638
					c12.214-1.182,10.262-22.964,24.393-22.771c14.131,0.194,12.002,32.715,21.681,31.941c9.679-0.774,7.937-12.776,18.39-12.97
					c8.602-0.159,11.041,13.962,11.636,18.971H19.946z"/>
			</g>
		</g>
		<g style="clip-path:url(#SVGID_00000178165082024961604930000000575177724431501245_);">
			<g>
				<g>
					<g>
						<g>
							<path style="fill:#FF9783;" d="M275.395,279.346c0,0-48.416,74.063-61.565,64.787c0,0-21.167-10.797-13.582-54.267
								c0.014-4.222,0.036-7.149-0.114-7.811c0,0-3.26-42.917-10.315-51.806c-0.774-0.975-3.112-2.79-2.801-2.867
								c21.545-5.386,30.178,40.509,36.118,65.567c0.246,1.038,40.983-30.744,40.983-30.744s21.543-28.484,23.046-26.856
								c2.177,2.359-6.17,15.061-6.17,15.061s0.544,1.452,2.178,2.178c1.633,0.726,2.54,1.815,3.085,3.992
								c0.544,2.178,2.722,3.448,3.085,4.718C289.705,262.567,279.992,276.02,275.395,279.346z"/>
							<path style="fill:#FF9783;" d="M264.845,262.023c0,0,4.355-12.339,6.17-11.977c1.814,0.363,9.799,3.811,9.618,6.895
								c-0.182,3.085-7.077,0.545-7.077,0.545s1.27,6.896-2.178,7.803C267.93,266.196,264.845,262.023,264.845,262.023z"/>
							<g>
								<path style="fill:#CF604B;" d="M275.552,256.941c0,0-0.182,3.085,2.359,3.629c0,0,0.544,3.266,3.81,2.541
									c0,0-0.907,1.451,1.089,1.814C282.81,264.926,274.281,274.181,275.552,256.941z"/>
								<g>
									<path style="fill:#D17966;" d="M273.919,250.949l2.481,1.132l2.45,1.203l1.225,0.603c0.406,0.194,0.826,0.404,1.208,0.695
										c0.374,0.286,0.755,0.641,0.919,1.167c0.175,0.529-0.05,1.143-0.424,1.488c-1.559,1.286-3.549,1.35-5.344,1.333
										c-0.445,0.006-0.957-0.089-1.216,0.117c-0.24,0.186-0.014,0.737,0.024,1.163l0.388,2.7l-0.029,0.005l-0.51-2.677
										l-0.127-0.669c-0.045-0.214-0.057-0.489,0.134-0.654c0.397-0.294,0.896-0.158,1.336-0.185
										c0.906,0.002,1.818-0.036,2.706-0.22c0.875-0.191,1.768-0.507,2.432-1.118c0.328-0.304,0.502-0.777,0.37-1.21
										c-0.125-0.432-0.459-0.77-0.81-1.045c-0.722-0.546-1.585-0.877-2.377-1.315l-4.849-2.485L273.919,250.949z"/>
								</g>
								<g>
									<path style="fill:#D17966;" d="M281.188,250.056c-0.166,0.298-0.351,0.578-0.56,0.836
										c-0.204,0.262-0.439,0.497-0.658,0.746c-0.249,0.222-0.479,0.46-0.743,0.669c-0.258,0.214-0.54,0.405-0.84,0.58
										l-0.021-0.02c0.922-0.954,1.856-1.898,2.801-2.831L281.188,250.056z"/>
								</g>
								<g>
									<path style="fill:#D17966;" d="M284.873,254.637c-0.552,0.782-1.164,1.524-1.837,2.209
										c-0.669,0.689-1.399,1.316-2.147,1.918c-0.779,0.569-1.543,1.131-2.413,1.591c-0.442,0.215-0.937,0.388-1.454,0.356
										c-0.502-0.042-1.008-0.278-1.263-0.7l0.024-0.017c0.282,0.385,0.774,0.561,1.241,0.564
										c0.475,0.005,0.931-0.175,1.344-0.401c0.819-0.48,1.59-1.044,2.343-1.623c1.507-1.161,2.897-2.475,4.14-3.916
										L284.873,254.637z"/>
								</g>
								<g>
									<path style="fill:#D17966;" d="M277.777,260.568c0.142,0.531,0.303,1.061,0.548,1.536c0.227,0.479,0.556,0.909,0.999,1.127
										c0.901,0.475,1.981-0.003,2.805-0.628c0.867-0.61,1.607-1.431,2.379-2.204l2.283-2.377l0.023,0.018
										c-0.685,0.86-1.402,1.695-2.139,2.511c-0.745,0.806-1.486,1.63-2.376,2.288c-0.448,0.319-0.934,0.602-1.471,0.747
										c-0.53,0.151-1.13,0.128-1.615-0.157c-0.491-0.274-0.82-0.759-1.03-1.264c-0.213-0.51-0.333-1.051-0.435-1.591
										L277.777,260.568z"/>
								</g>
								<g>
									<path style="fill:#D17966;" d="M281.554,262.568c0.075,0.665,0.346,1.289,0.617,1.876c0.145,0.288,0.326,0.565,0.53,0.758
										c0.163,0.176,0.487,0.216,0.794,0.242c0.624,0.021,1.226-0.098,1.886-0.314c0.335-0.078,0.669-0.116,0.952-0.232
										c0.288-0.109,0.566-0.305,0.822-0.525l0.022,0.019c-0.223,0.25-0.464,0.496-0.768,0.653
										c-0.304,0.156-0.638,0.222-0.957,0.322c-0.629,0.214-1.297,0.42-1.979,0.351c-0.327-0.04-0.696-0.084-0.944-0.338
										c-0.238-0.246-0.399-0.55-0.535-0.857c-0.258-0.621-0.455-1.278-0.467-1.956L281.554,262.568z"/>
								</g>
							</g>
						</g>
						<g>
							<path style="fill:#1A004C;" d="M133.118,245.687c0,0,6.178-14.808,11.395-16.22c5.217-1.412,8.229-0.212,8.229-0.212
								l52.817-67.738c1.729-4.341-3.587-17.201-6.933-20.481c-9.164-8.983-22.236-13.339-35.053-13.984
								c-41.775-2.104-61.239,101.121-87.615,115.968c0,0,20.639,23.743,52.632,27.47"/>
							<g>
								<g>
									<path style="fill:#1A004C;" d="M76.262,230.534c13.316-16.447,22.768-35.251,32.651-53.837
										c7.839-14.743,16.551-30.756,31.295-39.65c8.677-5.233,18.688-7.216,28.735-7.144c0.554,0.004,0.555-0.857,0-0.861
										c-8.969-0.064-17.961,1.457-26.021,5.521c-7.139,3.6-13.153,9.009-18.176,15.178c-5.596,6.872-10.095,14.57-14.325,22.334
										c-4.767,8.749-9.219,17.665-14.048,26.38c-6.096,11.001-12.796,21.682-20.72,31.47
										C75.308,230.352,75.913,230.965,76.262,230.534L76.262,230.534z"/>
								</g>
							</g>
							<path style="fill:#FF9783;" d="M159.139,167.656c-0.138,0.602-0.74,0.973-1.337,0.814c-2.496-0.663-8.125-2.7-10.645,3.625
								c-2.548,6.394,2.78,11.756,6.516,12.951c1.078,0.345,3.544,1.227,4.075,2.227c1.632,3.074,1.907,8.797,1.282,15.98
								c-1.35,15.512-10.698,21.584-10.698,21.584s31.244,27.492,35.903,8.144c0,0,6.151-36.224,6.38-36.358
								c3.845-2.254,16.031-0.474,15.17-27.664c-0.798-25.187-18.391-27.998-22.955-28.363
								C178.979,140.287,165.992,137.756,159.139,167.656z"/>
							<path style="fill:#1A004C;" d="M195.501,141.445c0,0-32.244,25.445-37.108,26.985
								C158.393,168.43,152.138,125.478,195.501,141.445z"/>
							<g>
								<path style="fill:#D17966;" d="M149.502,174.731c0,0,6.089-7.262,8.177,5.142"/>
								<path style="fill:#CF604B;" d="M180.848,173.35c3.26,0.772,5.276,4.041,4.504,7.301c-0.773,3.26-4.041,5.277-7.301,4.504
									c-3.26-0.772-5.277-4.041-4.504-7.301C174.319,174.594,177.588,172.577,180.848,173.35z"/>
								<path style="fill:#CF604B;" d="M204.731,181.919c-2.559-1.188-4.019-4.047-3.343-6.899c0.521-2.199,2.177-3.832,4.201-4.425
									C205.589,170.594,206.403,177.742,204.731,181.919z"/>
								<path style="fill:#FFFFFF;" d="M200.582,177.606l-10.11,2.123c0,0,3.547,4.326,6.366,3.2
									C199.657,181.803,200.582,177.606,200.582,177.606z"/>
								<path style="fill:#D17966;" d="M195.426,169.322l-0.251,6.756l3.467-0.563c0.64-0.104,0.935-0.855,0.537-1.366
									L195.426,169.322z"/>
								<path style="fill:#262B4D;" d="M184.569,163.932c-1.059,0.882,0.378-2.786,1.88-3.324c1.503-0.538,3.097,0.079,3.562,1.376
									C190.011,161.985,187.113,161.813,184.569,163.932z"/>
								<path style="fill:#262B4D;" d="M203.11,161.948c1.19,0.696-0.832-2.685-2.402-2.968c-1.571-0.283-3.042,0.588-3.286,1.945
									C197.421,160.924,200.252,160.277,203.11,161.948z"/>
								<path style="fill:#262B4D;" d="M188.504,169.977c0.153,1.182,0.741,2.08,1.314,2.006c0.573-0.074,0.914-1.092,0.761-2.275
									c-0.153-1.182-0.741-2.08-1.315-2.006C188.692,167.776,188.351,168.794,188.504,169.977z"/>
								<path style="fill:#262B4D;" d="M197.822,168.192c0.146,1.129,0.708,1.987,1.255,1.916c0.548-0.071,0.873-1.043,0.727-2.172
									c-0.146-1.129-0.708-1.987-1.255-1.916C198.001,166.09,197.676,167.063,197.822,168.192z"/>
							</g>
							<path style="fill:#262B4D;" d="M190.614,196.622c0,0-11.708-0.778-17.244-2.61
								C167.835,192.18,187.58,231.904,190.614,196.622z"/>
							<g>
								<g>
									<path style="fill:#1A004C;" d="M191.631,143.605c-0.672,4.027-2.782,7.542-5.41,10.606
										c-2.563,2.988-5.529,5.731-8.782,7.951c-6.224,4.247-14.845,6.727-22.167,3.943c-0.518-0.197-0.743,0.635-0.229,0.83
										c7.516,2.858,16.437,0.333,22.83-4.03c3.426-2.338,6.56-5.225,9.225-8.402c2.598-3.097,4.689-6.637,5.363-10.67
										C192.551,143.291,191.722,143.058,191.631,143.605L191.631,143.605z"/>
								</g>
							</g>
							<g>
								<path style="fill:#FFFFFF;" d="M161.212,195.742c-0.726,2.784-3.571,4.452-6.355,3.726
									c-2.784-0.726-4.452-3.572-3.726-6.355c0.726-2.784,3.572-4.452,6.355-3.726
									C160.27,190.114,161.938,192.959,161.212,195.742z"/>
								<path style="fill:#FFFFFF;" d="M158.582,205.823c-0.726,2.784-3.571,4.452-6.355,3.726
									c-2.784-0.726-4.452-3.572-3.726-6.355c0.726-2.784,3.571-4.451,6.355-3.725C157.64,200.194,159.308,203.04,158.582,205.823
									z"/>
								<polygon style="fill:#7768FF;" points="165.995,185.199 156.28,193.494 152.397,181.192 								"/>
							</g>
						</g>
						<g>
							<g>
								<path style="fill:#DA816C;" d="M152.24,728.697l4.461,31.675c0,0,7.154,21.007,13.797,12.875
									c6.643-8.132,13.218-12.43,13.218-12.43l2.181-32.931L152.24,728.697z"/>
								<path style="fill:#FF9783;" d="M169.627,729.882l1.149,43.082c0,0-21.024,3.157-13.212-10.914l-4.595-29.87L169.627,729.882
									z"/>
								<path style="fill:#DA816C;" d="M79.659,729.485l-9.856,31.597c0,0-7.502,6.578-10.21,6.408
									c-4.926-0.309-7.509-8.808-7.509-8.808l-0.811-29.197H79.659z"/>
								<path style="fill:#FF9783;" d="M65.459,721.041l-6.893,52.273c0,0-14.131,3.731-6.319-10.34l-1.723-40.21L65.459,721.041z"
									/>
								<path style="fill:#F9C5F9;" d="M185.906,760.653l26.528,21.502c1.357,1.008,0.388,2.705-1.552,2.721l-39.159,0.318
									c-0.943,0.008-1.789-0.421-2.103-1.067l-2.953-6.055c-0.854-1.75-2.553-1.891-2.397-0.038l-1.447,5.846
									c0.078,0.921-9.284,0.669-9.367-0.169c-0.514-5.198,0.569-22.197,1.501-26.93c0.134-0.678,0.829-1.221,1.755-1.355
									l0.005-0.001c0.831-0.12,1.681,0.11,2.189,0.603c2.642,2.557,11.094,10.252,15.599,8.695
									c3.019-1.044,6.929-2.914,8.149-3.99C183.477,760.006,185,759.98,185.906,760.653z"/>
								<path style="fill:#F9C5F9;" d="M51.719,757.587l-15.064,25.232c-1.609,2.453-0.713,5.382,2.194,7.111
									c4.71,2.803,8.559,8.397,11.523,8.479c5.355,0.148,13.679-5.491,18.531-7.606c3.256-1.42,5.806-3.5,5.404-6.222
									l-3.745-25.308c-0.046-0.313-0.598-0.428-0.871-0.181l-5.768,5.228c-1.89,1.713-7.018,1.483-8.291-0.568
									c-0.909-1.464-3.041-6.184-3.041-6.184C52.398,757.315,51.89,757.327,51.719,757.587z"/>
							</g>
							<path style="fill:#7768FF;" d="M125.762,335.502c-11.431,20.209-17.473,35.01-24.042,60.704
								c-7.618,29.797-78.066,281.836-81.659,336.034c9.39,2.264,82.188,1.934,88.121,1.604
								c18.876-54.091,44.192-229.765,52.285-263.841c1.244-5.238,9.338-4.088,8.706,1.259
								c-4.594,38.913-32.793,202.819-45.13,262.68c4.925,2.507,79.865,1.949,85.552,1.236
								c6.185-66.744,39.011-319.416-10.544-401.319C176.392,330.734,148.739,334.818,125.762,335.502z"/>
							<g>
								<path style="fill:none;stroke:#FFFFFF;stroke-width:0.314;stroke-miterlimit:10;" d="M194.322,337.153
									c0,0,21.955,55.529,21.955,126.025c0,70.497-24.64,269.675-24.64,269.675"/>
								
									<line style="fill:none;stroke:#FFFFFF;stroke-width:0.314;stroke-miterlimit:10;" x1="34.861" y1="731.779" x2="136.936" y2="340.432"/>
								<path style="fill:none;stroke:#FFFFFF;stroke-width:0.314;stroke-miterlimit:10;" d="M151.068,342.404
									c0,0-0.686,64.573-29.668,59.481"/>
								<path style="fill:none;stroke:#FFFFFF;stroke-width:0.314;stroke-miterlimit:10;" d="M211.211,404.848
									c-28.982,5.092-24.943-63.936-24.943-63.936"/>
							</g>
							<path style="opacity:0.21;fill:#262B4D;" d="M199.512,337.69l-94.085,76.609c0,0-0.52-49.072,16.055-80.188L199.512,337.69z"
								/>
						</g>
						<g>
							<path style="fill:#1A004C;" d="M194.062,230.23c-0.66,1.599,17.873,47.803,17.087,63.493
								c-0.792,15.807-0.449,38.416,0.391,40.794c0,0-23.403,13.661-91.06,3.007c-20.799-18.197-2.525-80.047,4.461-99.631
								c0,0,13.315-6.663,19.05-7.085C143.99,230.808,168.487,240.851,194.062,230.23z"/>
							<g>
								<path style="fill:#FFFFFF;" d="M143.822,230.735l9.582-12.533c0,0,11.417,8.115,28.557,14.104l-0.21,22.109
									c-0.046,0.617-0.726,0.987-1.288,0.698C175.016,252.313,151.034,241.402,143.822,230.735z"/>
								<path style="fill:#FFFFFF;" d="M187.083,216.335c0,0-1.285,12.03-5.357,15.461l7.509,21.704
									c0.538,1.673,1.746,1.592,1.93,0.724c1.174-5.531,3.35-17.55,1.879-24.76L187.083,216.335z"/>
								<path style="fill:#FFFFFF;" d="M187.871,255.312c0,1.622-0.702,2.938-1.567,2.938c-0.865,0-1.567-1.315-1.567-2.938
									c0-1.622,0.702-2.937,1.567-2.937C187.17,252.375,187.871,253.69,187.871,255.312z"/>
								<path style="fill:#FFFFFF;" d="M188.654,267.845c0,1.622-0.701,2.937-1.566,2.937c-0.865,0-1.567-1.315-1.567-2.937
									c0-1.622,0.701-2.937,1.567-2.937C187.953,264.908,188.654,266.223,188.654,267.845z"/>
								<path style="fill:#FFFFFF;" d="M189.254,281.649c0,1.622-0.702,2.937-1.567,2.937c-0.865,0-1.567-1.315-1.567-2.937
									c0-1.622,0.702-2.938,1.567-2.938C188.552,278.712,189.254,280.027,189.254,281.649z"/>
								<path style="fill:#FFFFFF;" d="M189.254,296.885c0,1.622-0.702,2.937-1.567,2.937c-0.865,0-1.567-1.315-1.567-2.937
									c0-1.622,0.702-2.937,1.567-2.937C188.552,293.948,189.254,295.263,189.254,296.885z"/>
								<path style="fill:#FFFFFF;" d="M189.254,312.121c0,1.622-0.702,2.938-1.567,2.938c-0.865,0-1.567-1.315-1.567-2.938
									c0-1.622,0.702-2.937,1.567-2.937C188.552,309.184,189.254,310.499,189.254,312.121z"/>
								<path style="fill:#FFFFFF;" d="M189.254,327.358c0,1.622-0.702,2.937-1.567,2.937c-0.865,0-1.567-1.315-1.567-2.937
									c0-1.622,0.702-2.937,1.567-2.937C188.552,324.42,189.254,325.735,189.254,327.358z"/>
							</g>
						</g>
						<g>
							<g>
								<path style="fill:#F9C5F9;" d="M136.04,479.014l-87.418-56.013l36.275-56.614l75.519,48.388
									c6.572,4.211,8.486,12.953,4.275,19.525L136.04,479.014z"/>
								<path style="fill:#FFFFFF;" d="M122.499,422.206c0,6.644-5.386,12.031-12.03,12.031c-6.644,0-12.031-5.386-12.031-12.031
									s5.386-12.03,12.031-12.03C117.112,410.176,122.499,415.562,122.499,422.206z"/>
							</g>
							<g>
								<path style="opacity:0.6;fill:#F9C5F9;" d="M105.043,377.526c0,0-14.091,6.542-3.201,46.496
									c0.576,2.114,1.073,4.523,0.646,6.672l-2.447,17.171c-0.365,1.839-0.615,4.307,0.945,5.346
									c1.953,1.3,13.079,11.524,14.432,11.975c2.748,0.916-0.25-12.656,0.199-19.807c0.08-1.274,0.384,4.526,0.553,7.064
									l0.338,5.582c3.327-1.522,3.259-7.933,3.778-10.093c0.695-2.894,0.129-4.75-0.207-5.451
									c-1.519-3.164-4.413-9.453-4.864-15.096c-0.266-3.324,2.061-15.659,3.988-38.633L105.043,377.526z"/>
								<path style="fill:#FF9783;" d="M103.249,280.289C77.122,426.21,94.093,453.922,95.804,455.06
									c2.14,1.425,14.335,12.631,15.819,13.126c3.012,1.004-0.274-13.872,0.218-21.709c0.088-1.396,0.421,4.961,0.606,7.742
									l0.371,6.118c3.646-1.669,3.572-8.695,4.141-11.062c0.762-3.173,0.142-5.206-0.227-5.974
									c-1.665-3.467-4.837-10.361-5.331-16.546c-0.291-3.643,24.469-122.151,28.823-139.564c5.915-23.663-1.53-50.843-9.86-51.763
									C120.026,234.287,105.413,268.203,103.249,280.289z"/>
							</g>
						</g>
					</g>
				</g>
				<g>
					<path style="fill:#1A004C;" d="M276.7,132.888h-42.821l-14.962,4.256c-2.115,0.602-4.12-1.241-3.7-3.399l4.662-23.924
						c0-12.739,7.742-23.066,17.293-23.066H276.7c9.551,0,17.293,10.327,17.293,23.066l0,0
						C293.993,122.561,286.251,132.888,276.7,132.888z"/>
					
						<rect x="253.971" y="103.683" transform="matrix(-1 -1.224647e-16 1.224647e-16 -1 515.2032 224.3093)" style="fill:#FFFFFF;" width="7.262" height="16.944"/>
					
						<rect x="264.243" y="109.194" transform="matrix(-1 -1.224647e-16 1.224647e-16 -1 535.7476 229.8207)" style="fill:#F9C5F9;" width="7.262" height="11.433"/>
					
						<rect x="242.866" y="98.6" transform="matrix(-1 -1.224647e-16 1.224647e-16 -1 492.9928 219.2264)" style="fill:#7768FF;" width="7.262" height="22.027"/>
				</g>
			</g>
			<g>
				<g>
					<g>
						<path style="fill:#F9C5F9;" d="M360.995,253.837c-1.288-4.502,5.461-61.962,7.039-66.384
							c4.128-11.573,30.274-17.828,42.875-12.354c20.39,8.858,57.331,57.779,53.694,72.552L360.995,253.837z"/>
						<path style="fill:#B65F42;" d="M412.02,213.617c0.077,0.615,0.641,1.044,1.252,0.946c2.556-0.41,8.373-1.876,10.25,4.685
							c1.897,6.632-3.954,11.443-7.798,12.259c-1.11,0.236-3.657,0.868-4.287,1.811c-1.937,2.901-2.168,8.615-2.885,15.805
							c-1.584,15.88,11.491,20.981,11.491,20.981s-36.911,25.888-39.612,6.128c0,0-2.492-36.738-2.707-36.895
							c-3.607-2.634-15.937-2.084-12.345-29.109c3.327-25.034,21.152-26.069,25.739-25.974
							C394.988,184.333,408.193,183.114,412.02,213.617z"/>
						<path style="fill:#B65F42;" d="M413.004,212.961c0.077,0.615,0.64,1.044,1.252,0.946c2.556-0.411,8.373-1.876,10.25,4.684
							c1.898,6.632-3.954,11.443-7.798,12.259c-1.11,0.236-3.657,0.867-4.287,1.811c-1.937,2.901-2.168,8.615-2.885,15.805
							c-1.584,15.88,11.492,20.981,11.492,20.981s-36.912,25.889-39.612,6.128c0,0-2.492-36.738-2.707-36.895
							c-3.607-2.634-15.937-2.084-12.345-29.109c3.327-25.034,21.152-26.069,25.739-25.974
							C395.972,183.677,409.176,182.458,413.004,212.961z"/>
						<path style="fill:#F9C5F9;" d="M380.595,182.073c0,0,13.01,33.365,22.924,35.483c10.983,2.347,7.455-13.966,10.22-3.436
							C413.74,214.12,424.54,160.395,380.595,182.073z"/>
						<g>
							<path style="fill:#CB7043;" d="M420.918,221.639c0,0-5.341-7.853-8.671,4.305"/>
							<path style="fill:#80301A;" d="M389.802,217.112c-3.328,0.442-5.667,3.499-5.225,6.827c0.443,3.328,3.499,5.668,6.827,5.225
								c3.328-0.442,5.668-3.499,5.225-6.827C396.186,219.009,393.13,216.669,389.802,217.112z"/>
							<path style="fill:#80301A;" d="M365.126,223.256c2.671-0.927,4.414-3.632,4.027-6.543c-0.298-2.245-1.786-4.04-3.744-4.835
								C365.409,211.878,363.879,218.923,365.126,223.256z"/>
							<polygon style="fill:#CB7043;" points="376.759,208.866 375.627,218.169 372.226,217.259 							"/>
							<path d="M387.81,207.579c-0.043-0.983,0.065-2.264-0.526-2.897c-0.502-0.607-2.202-1.327-2.621-1.526
								c-1.444-0.687-2.826-0.25-2.724,1.128c0.557,0.698,2.378,0.227,4.113,1.433C386.851,206.273,387.229,206.987,387.81,207.579z
								"/>
							<path d="M368.362,202.987c-0.777,0.355,0.589-1.19,1.665-1.745c0.938-0.581,2.416-0.496,3.026-0.472
								c1.605,0.063,2.495,1.091,1.43,2.165C373.329,204.099,371.38,201.608,368.362,202.987z"/>
							<path d="M382.507,212.979c-0.271,1.164-0.948,2-1.512,1.869c-0.564-0.132-0.801-1.181-0.53-2.345
								c0.271-1.164,0.948-2,1.512-1.868C382.54,210.766,382.778,211.815,382.507,212.979z"/>
							<path d="M373.395,210.263c-0.259,1.111-0.905,1.91-1.444,1.785c-0.539-0.126-0.766-1.128-0.507-2.239
								c0.259-1.111,0.906-1.91,1.444-1.785C373.428,208.149,373.654,209.152,373.395,210.263z"/>
							<path d="M377.724,239.336c0,0,11.752,0.401,17.456-0.87C400.885,237.196,378.31,255.805,377.724,239.336z"/>
							<g>
								<path style="fill:#FAF9F4;" d="M370.756,219.529c0,0-0.426,4.715,1.66,5.158c3.74,0.794,6.463-2.433,6.463-2.433
									L370.756,219.529z"/>
							</g>
						</g>
					</g>
					<g>
						<path style="fill:#E27A51;" d="M388.228,767.953l-4.202,29.836c0,0-6.739,19.787-12.997,12.128
							c-6.257-7.66-12.451-11.708-12.451-11.708l-2.054-31.02L388.228,767.953z"/>
						<path style="fill:#80301A;" d="M371.851,769.069l-1.082,40.582c0,0,19.804,2.974,12.445-10.281l4.329-28.137L371.851,769.069z
							"/>
						<path style="fill:#E27A51;" d="M487.952,765.661l9.284,29.763c0,0,7.066,6.196,9.618,6.036
							c4.64-0.291,7.073-8.297,7.073-8.297l0.764-27.502H487.952z"/>
						<path style="fill:#80301A;" d="M501.328,757.707l6.493,49.239c0,0,13.311,3.515,5.952-9.74l1.624-37.876L501.328,757.707z"/>
						<path style="fill:#7768FF;" d="M356.516,798.054l-24.988,20.254c-1.278,0.949-0.366,2.548,1.462,2.563l36.887,0.299
							c0.888,0.007,1.685-0.397,1.981-1.005l2.781-5.703c0.804-1.648,2.405-1.781,2.258-0.036l1.363,5.507
							c-0.073,0.868,8.745,0.631,8.823-0.159c0.484-4.896-0.536-20.908-1.414-25.367c-0.126-0.639-0.781-1.15-1.653-1.277
							l-0.004-0.001c-0.782-0.114-1.583,0.104-2.062,0.568c-2.489,2.409-10.45,9.657-14.693,8.19
							c-2.843-0.983-6.526-2.745-7.676-3.758C358.804,797.445,357.37,797.42,356.516,798.054z"/>
						<path style="fill:#7768FF;" d="M514.27,792.131l14.189,23.767c1.515,2.312,0.671,5.07-2.066,6.699
							c-4.437,2.641-8.062,7.909-10.854,7.986c-5.044,0.14-12.885-5.172-17.456-7.165c-3.067-1.337-5.469-3.297-5.09-5.861
							l3.528-23.839c0.044-0.295,0.563-0.403,0.82-0.171l5.433,4.925c1.78,1.614,6.61,1.397,7.81-0.535
							c0.856-1.378,2.865-5.825,2.865-5.825C513.631,791.876,514.11,791.887,514.27,792.131z"/>
					</g>
					<g>
						<path style="fill:#212129;" d="M439.011,373.593c11.455,20.253,17.511,35.086,24.094,60.835
							c7.634,29.861,50.237,282.202,53.838,336.517c-9.41,2.268-23.673,1.256-29.618,0.926
							c-18.917-54.208-74.983-229.336-83.094-263.486c-1.247-5.249-9.358-4.097-8.725,1.261
							c4.604,38.998-2.589,197.435-6.291,263.15c-4.935,2.512-28.518,2.05-34.218,1.336
							c-6.199-66.888-39.095-320.106,10.567-402.187C388.272,368.815,415.984,372.907,439.011,373.593z"/>
						<path style="fill:none;stroke:#FFFFFF;stroke-width:0.3147;stroke-miterlimit:10;" d="M368.528,380.839
							c0,0-20.228,50.057-20.228,120.706s13.147,249.964,13.147,249.964"/>
						
							<line style="fill:none;stroke:#FFFFFF;stroke-width:0.3147;stroke-miterlimit:10;" x1="500.283" y1="750.583" x2="427.813" y2="378.534"/>
						<path style="fill:none;stroke:#FFFFFF;stroke-width:0.3147;stroke-miterlimit:10;" d="M413.65,380.51
							c0,0,0.687,64.712,29.732,59.61"/>
						<path style="opacity:0.21;" d="M365.893,382.156l93.497,70.403c0,0,3.904-37.993-12.707-69.177L365.893,382.156z"/>
						<path style="fill:none;stroke:#FFFFFF;stroke-width:0.3147;stroke-miterlimit:10;" d="M353.377,443.088
							c29.044,5.103,24.372-59.285,24.372-59.285"/>
					</g>
					
						<line style="fill:none;stroke:#FFFFFF;stroke-width:0.3147;stroke-miterlimit:10;" x1="390.139" y1="752.434" x2="352.225" y2="751.564"/>
					
						<line style="fill:none;stroke:#FFFFFF;stroke-width:0.3147;stroke-miterlimit:10;" x1="515.092" y1="752.434" x2="480.845" y2="751.509"/>
					<g>
						<path style="fill:#B65F42;" d="M264.839,336.519c0,0,86.975,57.903,96.839,43.414c0,0,11.312-16.626-13.045-58.061
							c-1.629-4.3-2.77-7.277-2.87-8.01c0,0,25.994-34.776,29.791-46.539c0.417-1.291,2.107-4.035,1.76-3.996
							c-24.033,2.745-24.275,58.531-47.287,78.725c-0.873,0.767-57.113-23.971-57.113-23.971s-32.863-20.813-33.773-18.579
							c-1.319,3.238,12.051,13.002,12.051,13.002s0,1.688-1.388,3.053c-1.388,1.365-1.897,2.822-1.62,5.251
							c0.277,2.429-1.458,4.557-1.342,5.991C246.959,328.235,258.879,334.883,264.839,336.519z"/>
						<path style="fill:#B65F42;" d="M272.105,318.175c0,0-9.16-10.92-10.872-9.855c-1.712,1.064-8.537,7.633-7.172,10.71
							c1.365,3.077,7.426-2.151,7.426-2.151s1.341,7.518,5.205,7.125C270.554,323.611,272.105,318.175,272.105,318.175z"/>
						<g>
							<path style="fill:#80301A;" d="M259.243,317.086c0,0,1.365,3.077-1.018,4.603c0,0,0.694,3.539-2.915,4.048
								c0,0,1.48,1.134-0.417,2.267C254.893,328.005,267.13,334.182,259.243,317.086z"/>
							<g>
								<path style="fill:#80301A;" d="M258.64,310.372c-1.262,1.531-2.542,3.038-3.845,4.521c-0.611,0.762-1.387,1.448-1.873,2.241
									c-0.24,0.395-0.42,0.836-0.383,1.232c0.034,0.397,0.303,0.716,0.702,0.883c0.811,0.34,1.837,0.344,2.767,0.211
									c0.953-0.137,1.881-0.448,2.809-0.765l0.704-0.251c0.249-0.074,0.538-0.158,0.86-0.037c0.34,0.135,0.443,0.507,0.471,0.741
									l0.108,0.736l0.378,2.947l-0.031,0.005l-0.511-2.924l-0.128-0.731c-0.037-0.237-0.127-0.497-0.362-0.583
									c-0.478-0.141-0.943,0.181-1.401,0.326c-0.924,0.351-1.871,0.665-2.852,0.82c-0.974,0.142-2.006,0.168-2.942-0.207
									c-0.463-0.189-0.843-0.63-0.873-1.145c-0.037-0.511,0.182-0.991,0.439-1.41c0.259-0.426,0.593-0.797,0.931-1.158
									l1.002-1.095l4.008-4.38L258.64,310.372z"/>
							</g>
							<g>
								<path style="fill:#80301A;" d="M250.877,312.19c0.374,0.063,0.734,0.15,1.079,0.269c0.348,0.113,0.675,0.266,1.013,0.399
									c0.318,0.171,0.648,0.319,0.956,0.51c0.312,0.183,0.608,0.398,0.891,0.638l-0.014,0.028
									c-1.321-0.59-2.634-1.195-3.939-1.816L250.877,312.19z"/>
							</g>
							<g>
								<path style="fill:#80301A;" d="M248.87,318.272c0.957,0.411,1.915,0.799,2.877,1.167c0.964,0.362,1.929,0.719,2.918,1.002
									c0.971,0.318,1.982,0.593,2.964,0.805c0.487,0.094,0.991,0.123,1.45-0.027c0.462-0.132,0.912-0.443,1.096-0.931l0.03,0.008
									c-0.142,0.515-0.584,0.892-1.066,1.078c-0.492,0.193-1.033,0.186-1.545,0.115c-1.026-0.172-2.028-0.448-3.022-0.746
									c-1.982-0.618-3.901-1.438-5.716-2.444L248.87,318.272z"/>
							</g>
							<g>
								<path style="fill:#80301A;" d="M258.39,321.63c0.145,0.582,0.273,1.175,0.293,1.794c0.004,0.611-0.126,1.277-0.542,1.806
									c-0.399,0.545-1.083,0.822-1.718,0.881c-0.646,0.068-1.275-0.034-1.874-0.187c-1.192-0.362-2.267-0.916-3.321-1.493
									c-1.053-0.582-2.072-1.222-3.051-1.92l0.016-0.027c1.03,0.61,2.081,1.183,3.147,1.728c1.069,0.532,2.142,1.084,3.292,1.406
									c0.574,0.155,1.171,0.26,1.764,0.205c0.589-0.045,1.177-0.289,1.556-0.753c0.389-0.454,0.54-1.063,0.564-1.654
									c0.025-0.597-0.056-1.193-0.157-1.782L258.39,321.63z"/>
							</g>
							<g>
								<path style="fill:#80301A;" d="M255.301,325.107c0.309,0.677,0.444,1.429,0.441,2.183c-0.008,0.379-0.027,0.766-0.188,1.163
									c-0.074,0.191-0.272,0.415-0.422,0.514c-0.159,0.123-0.33,0.227-0.508,0.316c-0.703,0.383-1.541,0.384-2.24,0.399
									c-0.357-0.006-0.733,0.03-1.131-0.042c-0.396-0.083-0.716-0.303-1.017-0.511l0.015-0.028c0.323,0.166,0.661,0.32,1.023,0.36
									c0.361,0.039,0.726-0.024,1.091-0.047c0.73-0.025,1.469-0.088,2.131-0.401c0.316-0.161,0.667-0.341,0.813-0.674
									c0.146-0.33,0.196-0.698,0.22-1.06c0.03-0.725-0.017-1.472-0.257-2.159L255.301,325.107z"/>
							</g>
						</g>
					</g>
					<path style="fill:#FFFFFF;" d="M379.748,259.096c0,0-13.929,2.593-21.916,18.035c-6.335,12.248-30.387,63.287-30.387,63.287
						l-47.621-20.423l-4.321,29.764c0,0,73.436,44.237,86.083,34.43C374.232,374.382,385.84,274.845,379.748,259.096z"/>
					<g>
						<path style="fill:#FFFFFF;" d="M379.748,259.096c0.662,1.603-27.096,56.904-26.308,72.627
							c0.793,15.842,11.613,42.494,10.771,44.876c0,0,12.291,9.696,80.094-0.98c20.844-18.237,2.531-80.22-4.47-99.846
							c0,0-18.457-2.643-26.284-12.17C413.55,263.603,383.409,286.983,379.748,259.096z"/>
					</g>
					<g style="opacity:0.37;">
						<path style="fill:#969FE2;" d="M445.089,292.307c7.579,26.523,15.819,68.786-0.784,83.312
							c-42.814,6.742-63.477,5.36-72.903,3.426C396.533,350.597,421.506,322.029,445.089,292.307z"/>
					</g>
					<g>
						<path style="fill:#7768FF;" d="M390.756,386.525l-41.034-50.132l-43.673,0.361l33.501,46.175l19.746,2.819
							C360.532,385.806,390.756,386.525,390.756,386.525z"/>
						<polygon style="fill:#0E162E;" points="367.152,357.603 367.154,364.986 376.997,368.622 						"/>
					</g>
					<path style="fill:#B65F42;" d="M409.419,396.537c-34.007-7.219-54.821-15.311-58.704-16.655
						c-2.22-0.768-8.657-3.778-8.633-4.744c0.053-2.208,13.036,3.613,12.545,3.076c-0.491-0.537-15.962-5.693-15.964-7.476
						c-0.003-2.681,17.149,3.377,17.443,3.466c4.449,1.339-16.636-5.158-17.081-7c-0.445-1.841,9.376,0.458,9.725,0.533
						c0,0,8.293,2.466,8.601,1.899c0.307-0.567-16.246-10.493-14.507-11.554c1.739-1.06,14.423,4.891,17.417,6.034
						c2.995,1.142,7.574,1.562,8.722,0.865c0.971-0.585-0.022-5.434-2.005-7.305c0,0,7.532,3.347,11.041,7.321
						c1.845,2.09,3.64,4.977,3.64,4.977l28.434,5.545L409.419,396.537z"/>
					<path style="fill:#FFFFFF;" d="M425.712,296.043c0,0-4.029-26.151,9.342-24.031c22.626,3.586,48.458,55.204,38.549,123.794
						c-3.218,22.276-93.491,0.552-93.491,0.552l5.791-32.601l47.135,7.825L425.712,296.043z"/>
				</g>
				<g>
					<g>
						<path style="fill:#7768FF;" d="M271.533,200.607c-8.38-28.07,18.728-51.812,45.381-39.933
							c7.756,3.457,13.781,10.076,16.469,18.131c2.932,8.789,2.282,17.126-0.712,24.164l7.9,15.543
							c0.857,1.687-0.677,3.596-2.509,3.121l-17.108-4.436c-8.86,6.019-20.754,7.781-32.586,2.504
							C280.277,216.093,274.066,209.094,271.533,200.607z"/>
						<g>
							<path style="fill:#FFFFFF;" d="M316.584,183.878c0,7.865-6.376,14.241-14.241,14.241c-7.865,0-14.241-6.376-14.241-14.241
								c0-7.865,6.376-14.241,14.241-14.241C310.208,169.637,316.584,176.013,316.584,183.878z"/>
							<path style="fill:#1A004C;" d="M305.009,210.349h-5.658c-1.161,0-2.103-0.941-2.103-2.102v-6.624h9.863v6.624
								C307.111,209.408,306.17,210.349,305.009,210.349z"/>
							<path style="fill:#FFFFFF;" d="M304.54,202.555h-4.722c-3.334,0-6.037-2.703-6.037-6.037v-7.291h16.796v7.291
								C310.578,199.852,307.875,202.555,304.54,202.555z"/>
							<path style="fill:#1A004C;" d="M306.159,189.464c-0.715,0-1.295,0.58-1.295,1.295c0,0.289,0.113,0.542,0.273,0.757
								c-0.815,1.049-2.144,1.248-2.865,1.264l-0.583-0.018c-1.764,0.09-2.802-0.684-3.365-1.339c0.121-0.197,0.21-0.416,0.21-0.665
								c0-0.715-0.58-1.295-1.295-1.295c-0.715,0-1.295,0.58-1.295,1.295c0,0.715,0.58,1.295,1.295,1.295
								c0.049,0,0.091-0.023,0.139-0.028c0.713,0.872,1.941,1.768,3.783,1.848v8.681h1.111v-8.662
								c1.191-0.02,2.86-0.449,3.849-1.846c0.013,0,0.025,0.008,0.038,0.008c0.715,0,1.295-0.58,1.295-1.295
								C307.454,190.044,306.874,189.464,306.159,189.464z"/>
						</g>
					</g>
				</g>
			</g>
			<g>
				<g>
					<g>
						<g>
							<path style="fill:#FF9783;" d="M424.617,336.956c-1.106,0.395,11.539,18.405,27.783,27.784c0,0,74.614,69.709,88.252,64.615
								c13.637-5.095,75.047-139.212,41.409-145.191c0,0-8.763-6.332-14.912,1.607c-6.149,7.939-24.599,18.006-53.305,84.312
								c0,0-41.763-21.577-46.484-24.043c0,0-9.617-22.975-11.22-19.235c-1.603,3.74,2.137,13.892,2.137,13.892
								s-24.043-18.166-27.249-16.563C427.823,325.735,424.617,336.956,424.617,336.956z"/>
							<path style="fill:#DA816C;" d="M526.901,346.118c20.367-39.155,35.36-54.035,40.249-60.348
								c6.149-7.939,14.913-1.607,14.913-1.607c22.549,4.008,2.384,65.599-17.468,107.304
								C552.84,375.707,540.337,360.522,526.901,346.118z"/>
							<path style="fill:#7768FF;" d="M543.352,293.451c0,0,12.919-36.687,38.596-21.284c25.677,15.403,7.423,90.697-6.629,106.156
								l-56.678-31.094L543.352,293.451z"/>
							<path style="fill:none;stroke:#F6EDDE;stroke-width:0.2024;stroke-miterlimit:10;" d="M537.888,305.966
								c4.148-3.776,9.461-8.867,14.898-7.488c2.396,0.607,4.713,1.789,6.282,3.699c3.103,3.777,2.552,9.497,0.297,13.834
								c-2.256,4.337-5.9,7.755-8.967,11.561c-6.715,8.333-10.727,18.81-11.296,29.497"/>
							<path style="opacity:0.4;fill:#7768FF;" d="M574.614,377.598c9.147-1.776,24.128-60.168,18.674-70.476
								c0,0-28.149-16.627-29.939-14.774C545.112,311.242,574.614,377.598,574.614,377.598z"/>
						</g>
						<g>
							<g>
								<g>
									<polygon style="fill:#FF9783;" points="541.084,806.801 541.588,779.543 567.837,781.562 567.177,807.758 554.903,829.051 
										532.811,812.016 									"/>
									<path style="fill:#DA816C;" d="M543.607,780.048l20.191,42.906c0,0-3.896-6.726,4.035-13.836l0.003-29.07H543.607z"/>
									<g>
										<path style="fill:#1A004C;" d="M536.929,804.93c0,0,6.908,7.802,15.838,14.576c5.315,4.031,13.226-13.153,15.686-15.303
											c0.501-0.437,1.181-0.045,1.266,0.732l3.087,28.121h-77.733c-0.904,0-1.864-0.976-1.636-2.129
											C497.556,810.041,536.929,804.93,536.929,804.93z"/>
									</g>
									<g>
										<path style="fill:none;stroke:#FFFFFF;stroke-width:0.4048;stroke-miterlimit:10;" d="M527.464,828.213
											c0,0-3.029-14.386-13.25-17.036c0,0-16.09,5.3-19.876,17.415h77.61"/>
										
											<line style="fill:none;stroke:#FFFFFF;stroke-width:0.4048;stroke-miterlimit:10;" x1="570.244" y1="810.798" x2="554.154" y2="828.402"/>
									</g>
								</g>
								<g>
									<polygon style="fill:#FF9783;" points="665.764,810.334 657.688,784.086 685.955,783.076 692.013,810.839 681.553,829.051 
										659.461,812.016 									"/>
									<path style="fill:#DA816C;" d="M663.745,784.086l23.22,32.306c0,0-0.36,1.052,7.572-6.057l-9.086-27.258L663.745,784.086z"
										/>
									<g>
										<path style="fill:#1A004C;" d="M662.042,808.378c0,0,6.908,7.802,15.837,14.576c5.315,4.032,13.226-13.153,15.686-15.303
											c0.501-0.437,1.181-0.045,1.266,0.732l3.088,28.121h-77.733c-0.904,0-1.864-0.975-1.636-2.129
											C622.669,813.489,662.042,808.378,662.042,808.378z"/>
									</g>
									<g>
										<path style="fill:none;stroke:#FFFFFF;stroke-width:0.4048;stroke-miterlimit:10;" d="M652.577,831.661
											c0,0-3.029-14.386-13.25-17.036c0,0-16.09,5.3-19.876,17.415h77.61"/>
										
											<line style="fill:none;stroke:#FFFFFF;stroke-width:0.4048;stroke-miterlimit:10;" x1="695.357" y1="814.246" x2="679.267" y2="831.85"/>
									</g>
								</g>
								<g>
									<path style="fill:#120036;" d="M540.936,467.389c0,0-9.997,119.581-10.936,152.621c-0.94,33.039,7.55,162.056,7.55,162.056
										l33.406-0.106c0,0,35.374-227.986,75.766-307.669L540.936,467.389z"/>
									<polyline style="fill:none;stroke:#FFFFFF;stroke-width:0.3264;stroke-miterlimit:10;" points="554.713,761.623 
										560.013,610.189 583.485,521.601 									"/>
									<polygon style="fill:#7768FF;" points="575.156,782.824 536.541,782.067 534.269,760.109 578.942,760.109 									"/>
								</g>
								<g>
									<path style="fill:#1A004C;" d="M540.852,467.389c0,0,23.116,99.681,46.593,170.204
										c18.972,56.989,69.233,146.997,69.233,146.997l33.599-1.472l-35.706-143.832c-2.157-8.505-3.516-17.198-4.068-25.973
										c-2.082-33.116,4.724-100.032,7.571-142.91L540.852,467.389z"/>
									<path style="fill:none;stroke:#FFFFFF;stroke-width:0.3264;stroke-miterlimit:10;" d="M672.074,762.38
										c0.757-2.271-46.188-138.562-46.188-155.977c0-17.415,0.758-77.231,0.758-77.231"/>
									<polygon style="fill:#7768FF;" points="694.032,782.824 656.678,784.591 644.059,763.895 691.003,761.623 									"/>
								</g>
								<g>
									<path style="fill:#7768FF;" d="M631.223,259.534c0,0,52.219,5.333,55.507,48.576
										c3.288,43.243-18.442,222.576-18.442,222.576l-142.348-9.086l13.418-203.267c0.53-11.025,3.929-21.7,9.84-30.932
										c5.46-8.525,11.853-18.19,15.485-18.644l58.556-15.054L631.223,259.534z"/>
									<path style="opacity:0.4;fill:#7768FF;" d="M652.743,266.048c21.441,11.598,32.499,22.941,34.143,44.562
										c3.288,43.243-18.597,218.562-18.597,218.562l-140.833-7.572"/>
									<g>
										<defs>
											<path id="SVGID_00000150801389413667997380000002291179443055728291_" d="M631.223,259.534
												c0,0,52.219,5.333,55.507,48.576c3.288,43.243-18.442,222.576-18.442,222.576l-142.348-9.086l13.418-203.267
												c0.53-11.025,3.929-21.7,9.84-30.932c5.46-8.525,11.853-18.19,15.485-18.644l58.556-15.054L631.223,259.534z"/>
										</defs>
										<clipPath id="SVGID_00000098915812381278265590000016317122193224143009_">
											<use xlink:href="#SVGID_00000150801389413667997380000002291179443055728291_"  style="overflow:visible;"/>
										</clipPath>
										<g style="clip-path:url(#SVGID_00000098915812381278265590000016317122193224143009_);">
											<path style="fill:none;stroke:#F6EDDE;stroke-width:0.2024;stroke-miterlimit:10;" d="M617.688,267.81
												c-3.405,11.093-7.738,21.9-12.94,32.273c-6.994,13.948-16.705,28.031-31.532,32.892
												c-6.399,2.098-13.269,2.287-19.797,3.944c-6.528,1.658-13.176,5.341-15.534,11.649"/>
											<g>
												<path style="fill:none;stroke:#F6EDDE;stroke-width:0.2024;stroke-miterlimit:10;" d="M683.832,445.492
													c-13.381-1.647-29.581-2.129-37.343,8.894c-6.102,8.665-4.008,20.884-8.944,30.263
													c-6.459,12.272-22.069,15.573-34.266,22.174c-17.632,9.543-29.743,28.577-30.917,48.592"/>
												<path style="fill:none;stroke:#F6EDDE;stroke-width:0.2024;stroke-miterlimit:10;" d="M534.661,518.467
													c22.328-8.462,44.656-22.662,52.628-45.17c0.49-1.383,0.923-2.891,0.498-4.295c-0.417-1.378-1.582-2.387-2.759-3.214
													c-7.179-5.046-16.579-6.218-23.593-11.489c-2.831-2.127-5.167-4.851-7.966-7.019c-9.302-7.207-23.63-6.935-32.651,0.621
													"/>
												<path style="fill:none;stroke:#F6EDDE;stroke-width:0.2024;stroke-miterlimit:10;" d="M534.587,359.529
													c12.104,1.404,23.22,9.47,28.307,20.542c8.18,17.802,1.028,40.287,10.846,57.241
													c9.472,16.356,34.879,20.418,48.885,7.727c5.766-5.224,9.672-12.614,16.498-16.348
													c12.43-6.797,30.82,0.489,40.331-10.011"/>
											</g>
										</g>
									</g>
								</g>
								<g>
									<path style="fill:#FF9783;" d="M614.784,220.421l15.267,40.713l-11.358,5.679c-17.415,6.436-33.157,2.37-35.612-4.849l0,0
										l2.348-24.294l24.423-22.107c0,0,3.757,2.672,4.227,3.644C614.55,220.178,614.784,220.421,614.784,220.421z"/>
									<path style="fill:#DA816C;" d="M609.853,215.563L585.43,237.67l-0.809,8.699c0,0,20.443,4.922,28.015-27.637"/>
								</g>
								<g>
									<g>
										<path style="fill:#F9C5F9;" d="M553.349,431.356l-41.504-83.33c-2.449-4.681-9.265-9.162-14.021-10.327l-107.666-8.596
											c-1.765-0.433-3.091,1.607-2.168,3.336l44.104,82.578c2.374,4.444,6.282,7.679,10.795,8.933l108.224,10.708
											C552.887,435.151,554.268,433.112,553.349,431.356z"/>
										<polygon style="fill:#F9C5F9;" points="517.679,359.797 515.433,377.251 532.277,387.765 										"/>
										<polygon style="fill:#FAF9F4;" points="533.036,413.165 436.673,406.127 442.181,416.83 539.687,424.716 										"/>
									</g>
									<path style="fill:#FF9783;" d="M538.364,403.353c3.714,2.224,46.618,39.281,81.169,56.312
										c9.526,4.696,21.98-6.223,25.399-16.134l32.046-84.247l-52.158-26.326c-0.224,0.561-9.406,53.016-16.89,71.112
										c-2.678,6.475-1.04,5.555-7.07,3.306l-47.102-23.993c0,0-3.904-3.589-5.355-6.143c-2.76-4.857-12.409-10.217-12.409-10.217
										l5.738,10.324c1.009,1.732-0.181,2.115-3.688,0.612l-23.388-9.843c0,0-5.274-1.134-2.505,1.003
										c2.77,2.137,12.052,7.952,12.384,8.13c5.944,3.175-15.345-6.877-15.283-4.881c0.062,1.995,12.358,8.979,12.143,9.221
										c-0.214,0.243-13.343-5.831-13.37-3.952c-0.026,1.879,11.644,7.632,12.039,7.683c0.76,0.099-10.076-4.446-10.14-3.43
										C509.861,382.905,536.239,402.081,538.364,403.353z"/>
									<path style="fill:#DA816C;" d="M617.56,369.052c4.032-18.258,7.13-35.771,7.259-36.094l52.158,26.326l-20.345,53.486
										C643.899,397.933,631.007,383.24,617.56,369.052z"/>
									<path style="fill:#DA816C;" d="M623.463,446.637c4.749-3.1,16.341-6.851,20.571-0.935
										c-4.33,9.244-15.668,18.318-24.502,13.964c-1.337-0.659-2.69-1.357-4.049-2.073
										C616.636,453.306,619.084,449.495,623.463,446.637z"/>
									<g>
										<defs>
											<path id="SVGID_00000101820180786364867060000008409766927930685118_" d="M629.873,294.994
												c0,0,5.847-38.76,33.714-28.349c27.868,10.411,27.183,126.659,16.326,144.614l-79.996-38.413L629.873,294.994z"/>
										</defs>
										<use xlink:href="#SVGID_00000101820180786364867060000008409766927930685118_"  style="overflow:visible;fill:#7768FF;"/>
										<clipPath id="SVGID_00000095310887231850320730000013156373567163382718_">
											<use xlink:href="#SVGID_00000101820180786364867060000008409766927930685118_"  style="overflow:visible;"/>
										</clipPath>
										<g style="clip-path:url(#SVGID_00000095310887231850320730000013156373567163382718_);">
											<path style="fill:none;stroke:#F6EDDE;stroke-width:0.2024;stroke-miterlimit:10;" d="M638.686,267.474
												c-2.437,21.655,0.229,44.57,11.747,63.07c11.518,18.499,33.014,31.597,54.672,29.187"/>
											<path style="fill:none;stroke:#F6EDDE;stroke-width:0.2024;stroke-miterlimit:10;" d="M623.233,321.036
												c4.926,2.517,9.402,5.913,13.152,9.98c1.342,1.456,2.633,3.078,3.051,5.014c1.298,6.011-6.004,10.515-7.055,16.574
												c-0.72,4.148,1.671,8.239,4.635,11.228c2.965,2.988,6.575,5.313,9.315,8.508c7.057,8.228,6.445,21.933-1.318,29.499"/>
											<path style="fill:none;stroke:#F6EDDE;stroke-width:0.2024;stroke-miterlimit:10;" d="M686.283,383.201
												c-3.363-2.603-8.428-2.731-11.918-0.3c-6.133,4.272-5.674,13.302-8.359,20.278"/>
										</g>
									</g>
								</g>
								<g>
									<path style="fill:#1A004C;" d="M567.02,178.284c-0.457,7.992,6.243,4.862,6.243,4.862
										c16.986,10.92,38.615,29.908,38.615,29.908s7.901-1.423,7.951-3.407c0.379-15.143-0.52-33.418-0.52-33.418
										s4.888-3.239,4.11-8.677c0,0-1.598-6.394-7.078-5.48c0,0,1.142-3.882-1.598-5.937c-2.74-2.055-5.48,0.457-5.48,0.457
										s-0.229-7.307-7.764-9.134c-7.535-1.827-10.732,5.252-10.732,5.252s-1.37-3.882-3.653-3.653
										c-2.283,0.228-3.197,3.882-3.197,3.882s-0.456-5.937-7.307-5.023c-6.85,0.913-7.307,8.905-7.307,8.905
										s-0.362-2.565-3.425-2.055c-4.11,0.685-6.394,5.708-2.512,10.503c0,0-2.968,2.055-2.74,6.394
										C560.855,176.001,567.02,178.284,567.02,178.284z"/>
									<path style="fill:#FF9783;" d="M612.225,207.371c0.294,0.777,1.253,1.004,1.838,0.43c1.988-1.952,5.947-4.628,7.367,3.145
										c1.929,10.556-9.086,8.739-9.964,10.161c-1.78,2.882-7.489,12.563-16.001,16.321c-5.187,2.291-12.869,2.653-18.534-2.786
										c-5.665-5.44-8.79,0.975-6.413-57.176c0,0,1.325,4.732,6.916,3.607c3.872-0.779,6.912-4.03,11.161-5.216
										c3.451-0.963,12.943-3.348,17.032,8.658C607.506,190.032,610.495,202.796,612.225,207.371z"/>
									<g>
										<path style="fill:#FFFFFF;" d="M571.3,216.618c0,0,3.416,1.701,11.767,0.916c0,0-4.492,6.086-7.781,4.908
											C571.996,221.264,571.3,216.618,571.3,216.618z"/>
										<path style="fill:#DA816C;" d="M619.778,210.16l-5.817,4.386C613.961,214.546,616.13,203.938,619.778,210.16z"/>
										<path style="fill:#0D1633;" d="M578.122,204.288c0,1.27,0.503,2.3,1.124,2.3c0.62,0,1.123-1.029,1.123-2.3
											c0-1.27-0.503-2.3-1.123-2.3C578.625,201.988,578.122,203.018,578.122,204.288z"/>
										<path style="fill:#0D1633;" d="M570.808,203.162c0,1.27,0.503,2.3,1.124,2.3c0.621,0,1.123-1.03,1.123-2.3
											s-0.503-2.3-1.123-2.3C571.311,200.862,570.808,201.892,570.808,203.162z"/>
										<path style="fill:#0D1633;" d="M587.571,194.375c1.666,1.163-0.94-4.097-3.203-4.683
											c-2.263-0.586-4.498,0.561-4.993,2.562C579.375,192.254,583.571,191.582,587.571,194.375z"/>
										<path style="fill:#0D1633;" d="M570.462,193.816c2.386-0.311,4.101,0.112,4.101,0.112
											c-0.311-1.894-2.07-3.221-4.142-3.273"/>
										<path style="fill:#DA816C;" d="M574.249,203.096l-3.425,9.743c-0.056,0.159,0.045,0.331,0.2,0.343l4.043,0.307
											c0.14,0.01,0.256-0.116,0.247-0.269l-0.617-10.05C574.68,202.899,574.339,202.843,574.249,203.096z"/>
									</g>
								</g>
							</g>
						</g>
					</g>
				</g>
				<g>
					<g>
						<path style="fill:#1A004C;" d="M475.006,136.848c-5.029-28.859,24.678-49.257,49.753-34.334
							c7.297,4.343,12.504,11.623,14.228,19.938c1.881,9.072,0.257,17.275-3.542,23.913l6.022,16.363
							c0.653,1.776-1.095,3.492-2.858,2.805l-16.469-6.413c-9.505,4.938-21.524,5.292-32.655-1.336
							C481.874,153.253,476.527,145.573,475.006,136.848z"/>
						<g>
							<g>
								<g>
									<g>
										<g>
											<path style="fill:#FFFFFF;" d="M514.588,140.096c0.911-0.687,1.732-1.498,2.439-2.425l4.774,1.957l2.145-5.231
												l-4.57-1.873c0.256-1.239,0.319-2.487,0.206-3.708l5.33-2.231l-2.182-5.216l-4.916,2.058
												c-0.817-1.363-1.887-2.576-3.183-3.565l1.957-4.775l-5.231-2.145l-1.873,4.57c-1.473-0.303-2.956-0.33-4.394-0.117
												l-1.85-4.422l-5.215,2.183l1.789,4.271c-1.393,0.938-2.607,2.16-3.553,3.619l-4.569-1.873l-2.145,5.231l4.775,1.956
												c-0.147,1.158-0.132,2.311,0.035,3.439l-5.037,2.107l2.182,5.215l4.887-2.046c0.938,1.393,2.16,2.607,3.62,3.553
												l-1.874,4.569l5.232,2.145l1.957-4.774c1.389,0.176,2.777,0.128,4.116-0.143l2.045,4.886l5.215-2.182L514.588,140.096z
												 M504.957,134.76c-2.644-1.084-3.913-4.116-2.829-6.76c1.084-2.644,4.116-3.913,6.76-2.829
												c2.644,1.084,3.913,4.116,2.829,6.76C510.634,134.575,507.601,135.844,504.957,134.76z"/>
										</g>
									</g>
								</g>
							</g>
						</g>
					</g>
				</g>
			</g>
		</g>
		<g style="clip-path:url(#SVGID_00000178165082024961604930000000575177724431501245_);">
			<path style="fill:#FFFFFF;" d="M533.589,223.525c0-3.406-2.761-6.166-6.166-6.166s-6.166,2.761-6.166,6.166
				c0,3.405,2.761,6.166,6.166,6.166S533.589,226.93,533.589,223.525z"/>
			<path style="fill:#FFFFFF;" d="M254.294,166.793c0-2.919-2.366-5.285-5.285-5.285c-2.919,0-5.285,2.366-5.285,5.285
				c0,2.919,2.366,5.285,5.285,5.285C251.928,172.079,254.294,169.712,254.294,166.793z"/>
			<path style="fill:#FFFFFF;" d="M629.455,82.28c0-2.919-2.366-5.285-5.285-5.285c-2.919,0-5.285,2.366-5.285,5.285
				c0,2.919,2.366,5.285,5.285,5.285C627.088,87.565,629.455,85.199,629.455,82.28z"/>
			<path style="fill:#FFFFFF;" d="M222.606,59.98c0-3.405-2.761-6.166-6.166-6.166s-6.166,2.761-6.166,6.166
				c0,3.406,2.761,6.166,6.166,6.166S222.606,63.385,222.606,59.98z"/>
			<path style="fill:#FFFFFF;" d="M197.941,49.409c0-0.973-0.789-1.762-1.762-1.762c-0.973,0-1.762,0.789-1.762,1.762
				c0,0.973,0.789,1.762,1.762,1.762C197.153,51.171,197.941,50.382,197.941,49.409z"/>
			<path style="fill:#FFFFFF;" d="M430.808,129.465c0-2.433-1.972-4.404-4.404-4.404c-2.433,0-4.405,1.972-4.405,4.404
				c0,2.433,1.972,4.404,4.405,4.404C428.836,133.87,430.808,131.898,430.808,129.465z"/>
			<path style="fill:#FFFFFF;" d="M729.397,386.525c0-3.405-2.761-6.166-6.166-6.166c-3.406,0-6.166,2.761-6.166,6.166
				c0,3.406,2.761,6.166,6.166,6.166C726.636,392.691,729.397,389.931,729.397,386.525z"/>
			<path style="fill:#FFFFFF;" d="M60.523,286.557c0-1.946-1.578-3.523-3.524-3.523c-1.946,0-3.524,1.578-3.524,3.523
				c0,1.946,1.578,3.523,3.524,3.523C58.945,290.08,60.523,288.503,60.523,286.557z"/>
			<path style="fill:#FFFFFF;" d="M281.807,448.192c0-1.946-1.578-3.523-3.524-3.523c-1.946,0-3.524,1.578-3.524,3.523
				c0,1.946,1.577,3.523,3.524,3.523C280.229,451.716,281.807,450.138,281.807,448.192z"/>
			<path style="fill:#FFFFFF;" d="M63.133,90.871c0-1.946-1.578-3.524-3.524-3.524s-3.524,1.578-3.524,3.524
				s1.578,3.523,3.524,3.523S63.133,92.817,63.133,90.871z"/>
			<circle style="fill:#FFFFFF;" cx="51.134" cy="233.3" r="8.809"/>
		</g>
	</g>
</g>
</svg>
